<?xml version="1.0" encoding="UTF-8"?>
<svg version="1.1" xmlns="http://www.w3.org/2000/svg" width="844" height="422">
<path d="M0 0 C278.52 0 557.04 0 844 0 C844 139.26 844 278.52 844 422 C565.48 422 286.96 422 0 422 C0 282.74 0 143.48 0 0 Z " fill="#00B1A9" transform="translate(0,0)"/>
<path d="M0 0 C278.19 0 556.38 0 843 0 C843 139.26 843 278.52 843 422 C565.47 422 287.94 422 2 422 C2 421.67 2 421.34 2 421 C3.24523437 420.85304688 4.49046875 420.70609375 5.7734375 420.5546875 C19.08614501 418.95046282 32.35522343 417.10885817 45.625 415.1875 C60.86021859 412.9829586 76.10765465 410.9071255 91.375 408.9375 C105.00747561 407.17699409 118.63583073 405.39747114 132.25 403.5 C132.96664825 403.40016815 133.68329651 403.3003363 134.42166138 403.19747925 C143.01486646 401.99812698 151.60400923 400.77145528 160.19140625 399.53125 C163.73171365 399.02043601 167.27208345 398.51005692 170.8125 398 C171.68959625 397.87353088 172.5666925 397.74706177 173.47036743 397.61676025 C187.26709398 395.63140745 201.07903364 393.80453986 214.90859985 392.06399536 C226.04214834 390.66151105 237.14532975 389.13316194 248.23974609 387.44433594 C256.33389573 386.22132892 264.44101449 385.14959039 272.5625 384.125 C285.06134531 382.5467425 297.53148296 380.80165121 310 379 C323.49163665 377.05212346 336.98610779 375.18340062 350.50952148 373.46875 C362.11184835 371.99650088 373.70086147 370.43293885 385.28955078 368.85742188 C386.8466748 368.64579738 388.40380367 368.43420859 389.9609375 368.22265625 C390.72483795 368.11885651 391.4887384 368.01505676 392.27578735 367.90811157 C397.2162131 367.23814396 402.15819835 366.58153408 407.1015625 365.93359375 C418.54826796 364.43187334 429.97362684 362.87861592 441.375 361.0625 C452.65802028 359.26978717 463.97498997 357.83227276 475.3125 356.4375 C476.62530441 356.27595428 476.62530441 356.27595428 477.96463013 356.11114502 C479.26616531 355.95098907 479.26616531 355.95098907 480.59399414 355.78759766 C494.38808125 354.08914519 508.13875906 352.19640871 521.87890625 350.10546875 C537.05427439 347.80863742 552.24976377 345.78290526 567.4753418 343.85375977 C577.05326002 342.63934012 586.62489147 341.3933606 596.1875 340.0625 C597.28956787 339.90942383 598.39163574 339.75634766 599.52709961 339.59863281 C604.22093927 338.94558829 608.91455159 338.29091449 613.6081543 337.63616943 C619.54759918 336.80818517 625.48766848 335.98486693 631.42837524 335.16598511 C633.42042933 334.8906011 635.41227519 334.61370617 637.40390015 334.3352356 C640.20496034 333.94370096 643.00668123 333.5572562 645.80859375 333.171875 C646.64795471 333.05333664 647.48731567 332.93479828 648.35211182 332.81266785 C652.60589971 332.23306301 656.69380572 331.86996897 661 332 C661 332.66 661 333.32 661 334 C661.70020264 334.25652344 662.40040527 334.51304687 663.12182617 334.77734375 C666.29863452 336.12686077 669.10476831 337.76368553 672.05078125 339.5625 C672.62235458 339.91038574 673.19392792 340.25827148 673.78282166 340.61669922 C675.00010877 341.35846053 676.2163163 342.10199602 677.43151855 342.84716797 C679.32566859 344.00807088 681.22347129 345.16279636 683.12207031 346.31640625 C688.49497592 349.58729807 693.8533282 352.87356405 699.12109375 356.3125 C699.83676514 356.7765625 700.55243652 357.240625 701.28979492 357.71875 C702.5447034 358.53899657 703.79185981 359.37130599 705.02856445 360.21875 C709.73029565 363.28971599 711.78837886 363.22354736 718 364 C718 276.22 718 188.44 718 98 C709.86412556 99.62717489 705.63050523 100.93257077 699.1875 105.3125 C698.36894531 105.837229 697.55039062 106.36195801 696.70703125 106.90258789 C692.46263167 109.63072732 688.35435734 112.46200979 684.33203125 115.5078125 C669.83868298 126.06156862 655.26588117 127.78605284 637.94628906 129.49511719 C632.74296461 130.01303045 627.55586218 130.64220119 622.3671875 131.2890625 C621.4773819 131.39980103 620.58757629 131.51053955 619.67080688 131.62463379 C617.8783952 131.8478397 616.08600619 132.0712278 614.29364014 132.2947998 C610.79519825 132.72767428 607.29520284 133.14705835 603.79507446 133.56604004 C595.56092144 134.55246304 587.33556009 135.580451 579.125 136.75 C578.30596191 136.86553223 577.48692383 136.98106445 576.64306641 137.10009766 C573.64327975 137.53930214 570.88329642 138.03890119 568 139 C566.01733398 138.71801758 566.01733398 138.71801758 563.74609375 138.14453125 C562.90054932 137.93626709 562.05500488 137.72800293 561.18383789 137.51342773 C560.27754639 137.28212158 559.37125488 137.05081543 558.4375 136.8125 C556.52896854 136.3398409 554.62010799 135.86850881 552.7109375 135.3984375 C551.75155273 135.16092773 550.79216797 134.92341797 549.80371094 134.67871094 C545.73811483 133.69452797 541.65198749 132.81585389 537.5625 131.9375 C532.49846667 130.8373598 527.52852395 129.61849483 522.5625 128.125 C514.51731743 125.73496915 506.32554968 124.02525942 498.11938477 122.28173828 C491.22930045 120.79719294 484.48860764 119.02920674 477.72412109 117.05322266 C470.71907119 115.07211703 463.63838209 113.39448478 456.5625 111.6875 C455.76507385 111.49401978 454.96764771 111.30053955 454.14605713 111.10119629 C441.62908936 108.06465133 429.08173343 105.18666257 416.50927734 102.39013672 C408.77069105 100.65858864 401.09464367 98.78295134 393.44311523 96.70214844 C388.30345729 95.31221067 383.14294334 94.11669034 377.9375 93 C372.05899771 91.73637295 366.27819256 90.28710352 360.5 88.625 C352.16794146 86.2370473 343.75961316 84.28773217 335.30761719 82.3737793 C327.09239745 80.5052265 318.91742683 78.50441618 310.75 76.4375 C301.34133301 74.05758817 291.91553566 71.81254069 282.44335938 69.70068359 C277.51192627 68.59394425 272.62519691 67.40057429 267.75 66.0625 C260.87671881 64.17616616 253.94911018 62.58217883 247 61 C238.76996472 59.12553318 230.60147236 57.15366209 222.4609375 54.921875 C217.98126873 53.72864495 213.47158121 52.68190811 208.95556641 51.63793945 C202.7215665 50.18889934 196.5174295 48.63083336 190.3125 47.0625 C182.37630229 45.05923689 174.42568541 43.15957243 166.4375 41.375 C160.5057156 40.0497865 154.61272283 38.67226457 148.75 37.0625 C140.82377582 34.88719181 132.81861201 33.08187177 124.79980469 31.28149414 C119.18974822 30.0109915 113.61980007 28.6522823 108.06640625 27.15234375 C99.03017283 24.71340653 89.9437164 22.49013291 80.85083008 20.27319336 C77.96569472 19.56937797 75.08144781 18.8620068 72.19726562 18.15429688 C61.66480359 15.57752582 51.11909997 13.07955768 40.53440857 10.72547913 C34.65125147 9.40915566 28.82119216 7.9420822 23 6.375 C15.37664315 4.32755388 7.74209752 2.55347144 0 1 C0 0.67 0 0.34 0 0 Z " fill="#007D89" transform="translate(1,0)"/>
<path d="M0 0 C0 87.78 0 175.56 0 266 C-8.99750485 266 -8.99750485 266 -13.66015625 262.9921875 C-14.70365234 262.33347656 -15.74714844 261.67476563 -16.82226562 260.99609375 C-18.42618164 259.94615234 -18.42618164 259.94615234 -20.0625 258.875 C-22.15664006 257.53763331 -24.25173655 256.20176341 -26.34765625 254.8671875 C-26.86651398 254.5014563 -27.3853717 254.1357251 -27.91995239 253.75891113 C-31.72952174 251.14947779 -35.30396362 249.49523678 -39.69958496 248.0637207 C-46.79532022 245.39298861 -52.57397936 242.32301346 -57 236 C-61.74868026 223.15357401 -59.73491921 207.19938101 -59.33206058 193.7908082 C-59.18755969 188.16739357 -59.17471613 182.54365526 -59.1474762 176.91867065 C-59.07618859 166.28463226 -58.88775906 155.6560793 -58.65643793 145.02444923 C-58.39870073 132.91388791 -58.27274031 120.80305415 -58.15744293 108.69042993 C-57.91749458 83.79058684 -57.51336692 58.89560162 -57 34 C-57.68317291 34.08596939 -58.36634583 34.17193878 -59.07022095 34.26051331 C-62.20559513 34.65472741 -65.34107772 35.04807282 -68.4765625 35.44140625 C-69.55107666 35.57663696 -70.62559082 35.71186768 -71.73266602 35.85119629 C-79.01744451 36.76422557 -86.30595536 37.6083161 -93.60546875 38.39453125 C-98.21605526 38.90209331 -102.820843 39.45569062 -107.42578125 40.01171875 C-108.96109308 40.19610469 -110.49641217 40.38043021 -112.03173828 40.56469727 C-114.34517417 40.84240035 -116.65840537 41.12143267 -118.97113037 41.40499878 C-121.15089577 41.67214466 -123.33122937 41.93415101 -125.51171875 42.1953125 C-126.78490967 42.35016113 -128.05810059 42.50500977 -129.36987305 42.66455078 C-132.8999727 42.99075678 -136.45486052 43 -140 43 C-140 102.07 -140 161.14 -140 222 C-142.64 222.33 -145.28 222.66 -148 223 C-148.02332627 199.15703607 -148.04097784 175.31407384 -148.05181217 151.47110081 C-148.05697571 140.40122154 -148.0640195 129.33134934 -148.07543945 118.26147461 C-148.08538454 108.61668946 -148.09185301 98.97190943 -148.09408849 89.32711929 C-148.0953959 84.21693439 -148.09848364 79.10676415 -148.10573006 73.99658394 C-148.1124875 69.19257441 -148.11461753 64.38858567 -148.11310768 59.58457184 C-148.11338413 57.81601537 -148.11539088 56.04745825 -148.11920547 54.27890587 C-148.12413843 51.87512527 -148.12299978 49.47142443 -148.12025452 47.06764221 C-148.12316736 46.35851152 -148.1260802 45.64938082 -148.12908131 44.91876131 C-148.11412121 40.11412121 -148.11412121 40.11412121 -147 39 C-144.65003714 38.62355151 -142.31471705 38.30476675 -139.953125 38.01953125 C-139.21075592 37.92623535 -138.46838684 37.83293945 -137.70352173 37.73681641 C-136.07777996 37.5328391 -134.45180046 37.33075011 -132.82562256 37.13027954 C-128.41123798 36.58563409 -123.99871775 36.0262189 -119.5859375 35.46875 C-118.188629 35.29277031 -118.188629 35.29277031 -116.76309204 35.11323547 C-106.77508256 33.85235322 -96.79474368 32.53492961 -86.8157959 31.20443726 C-84.87423151 30.94567349 -82.93258259 30.68754304 -80.99084473 30.43008423 C-76.53364136 29.83907144 -72.07768927 29.24140572 -67.62402344 28.62426758 C-64.80472438 28.23486421 -61.99575029 27.89125103 -59.16503906 27.5847168 C-51.52294775 26.67714873 -46.33636157 24.50307939 -40 20.1875 C-38.68092651 19.3353894 -38.68092651 19.3353894 -37.33520508 18.46606445 C-34.54397616 16.66291621 -31.7715336 14.83324647 -29 13 C-25.24531398 10.53648642 -21.47179395 8.10520595 -17.6875 5.6875 C-16.83478516 5.11862061 -15.98207031 4.54974121 -15.10351562 3.96362305 C-14.28947266 3.44324463 -13.47542969 2.92286621 -12.63671875 2.38671875 C-11.58037231 1.69388794 -11.58037231 1.69388794 -10.50268555 0.98706055 C-8 0 -8 0 0 0 Z " fill="#F7A930" transform="translate(719,98)"/>
<path d="M0 0 C0 54.45 0 108.9 0 165 C-12.21 165.33 -24.42 165.66 -37 166 C-52.82647043 167.62919548 -67.90839555 169.96946518 -83 175 C-83 120.22 -83 65.44 -83 9 C-69.47 7.35 -55.94 5.7 -42 4 C-32.4405927 2.79546104 -32.4405927 2.79546104 -22.8828125 1.578125 C-15.21828791 0.64138424 -7.73162062 0 0 0 Z " fill="#87DAE0" transform="translate(662,132)"/>
<path d="M0 0 C2.75 1.75 2.75 1.75 4 4 C3.75 6.25 3.75 6.25 3 8 C2.34 8 1.68 8 1 8 C1 7.34 1 6.68 1 6 C0.01 6 -0.98 6 -2 6 C-2.103125 6.845625 -2.20625 7.69125 -2.3125 8.5625 C-3.20484087 13.02420437 -4.97594335 17.03753507 -7.07421875 21.05859375 C-8.17386259 23.49693444 -8.81716827 25.32130254 -9 28 C-7.77876486 31.04237525 -6.23650193 33.64652476 -4.49609375 36.421875 C-2.65780921 39.58967604 -2.36121412 42.38785878 -2 46 C-0.5578092 48.85248773 -0.5578092 48.85248773 1 51 C1.64690922 49.3962669 2.29248764 47.79199694 2.9375 46.1875 C3.29714844 45.29417969 3.65679687 44.40085938 4.02734375 43.48046875 C4.73613486 41.6729091 5.3860247 39.84192591 6 38 C7.32 38.66 8.64 39.32 10 40 C9.67 41.65 9.34 43.3 9 45 C11.64 45.33 14.28 45.66 17 46 C17.144375 45.195625 17.28875 44.39125 17.4375 43.5625 C18 41 18 41 19 40 C20.66617115 39.95936168 22.33388095 39.957279 24 40 C24.495 42.97 24.495 42.97 25 46 C26.65 46.33 28.3 46.66 30 47 C30.66 45.68 31.32 44.36 32 43 C33.65 43.33 35.3 43.66 37 44 C36.67 46.64 36.34 49.28 36 52 C36.969375 52.144375 37.93875 52.28875 38.9375 52.4375 C42 53 42 53 43 54 C43.55686824 60.40398474 41.82391775 65.90239262 40 72 C39.62377575 73.37466553 39.24856301 74.7496089 38.875 76.125 C38 79 38 79 37 80 C28.94668133 80.08603973 21.55766431 77.47308185 14 75 C11.31177459 74.22488913 8.62112792 73.46087029 5.92578125 72.7109375 C4 72 4 72 2 70 C2.03287583 67.27130593 2.56397771 64.7033382 3 62 C2.01 61.67 1.02 61.34 0 61 C-1.39712274 59.04402816 -2.73779907 57.04563599 -4 55 C-4.519997 57.8473622 -5.00749069 60.69520391 -5.45703125 63.5546875 C-5.81021324 65.79574156 -6.20154663 68.03122631 -6.63671875 70.2578125 C-7.12143043 73.35221189 -7.44413488 75.89563453 -7 79 C-4.71579001 81.76591414 -2.19193947 83.40752254 1 85 C1.66 82.03 2.32 79.06 3 76 C7.89219216 76.80378817 12.48934534 78.40069039 17.1875 79.9375 C23.75296323 82.0543402 30.17892514 83.88179101 37 85 C38.10499565 83.27136297 39.20895914 81.54206612 40.3125 79.8125 C40.92738281 78.84957031 41.54226562 77.88664062 42.17578125 76.89453125 C42.77777344 75.93933594 43.37976563 74.98414063 44 74 C44.88751953 72.83017578 44.88751953 72.83017578 45.79296875 71.63671875 C47.2199845 68.51945134 46.76378008 66.70093925 46.19824219 63.39990234 C45.77711643 58.30179123 47.11325291 53.28692318 48.125 48.3125 C48.32609375 47.19810547 48.5271875 46.08371094 48.734375 44.93554688 C49.97218465 38.71294353 50.88384574 34.89378196 56 31 C56.78375 30.21625 57.5675 29.4325 58.375 28.625 C59.76842629 27.23157371 61.17004166 25.84467349 62.625 24.515625 C67.81382339 19.65110307 71.37597061 14.09145366 75 8 C76.66674321 10.91824244 77.2432008 12.97594379 77.1953125 16.328125 C77.18886719 17.12734375 77.18242187 17.9265625 77.17578125 18.75 C77.15064453 19.9875 77.15064453 19.9875 77.125 21.25 C77.11597656 22.09046875 77.10695313 22.9309375 77.09765625 23.796875 C77.07415817 25.86470604 77.03828908 27.93238995 77 30 C77.59868896 29.72357666 78.19737793 29.44715332 78.81420898 29.16235352 C92.23619459 23 92.23619459 23 98 23 C98.33 24.65 98.66 26.3 99 28 C77.27808989 39 77.27808989 39 74 39 C73.98541748 39.95890137 73.97083496 40.91780273 73.95581055 41.90576172 C73.89790493 45.4582274 73.82067329 49.01005398 73.73754883 52.56201172 C73.7042627 54.10031779 73.67624222 55.63874707 73.65356445 57.17724609 C73.62008442 59.38692818 73.5677769 61.59547735 73.51171875 63.8046875 C73.50532883 64.49432587 73.4989389 65.18396423 73.49235535 65.89450073 C73.43237305 67.83544922 73.43237305 67.83544922 73 71 C72.01 71.66 71.02 72.32 70 73 C70.65413834 81.97019665 71.96091607 90.81228823 73.375 99.6875 C73.59991952 101.11685159 73.8247727 102.54621363 74.04956055 103.97558594 C75.3866279 112.4260838 76.81797743 120.84881697 78.51953125 129.234375 C79 132 79 132 79 136 C81.64 136 84.28 136 87 136 C87.33 136.99 87.66 137.98 88 139 C86.0852312 139.36428777 84.16807707 139.71605306 82.25 140.0625 C81.18265625 140.25972656 80.1153125 140.45695313 79.015625 140.66015625 C76.18808504 140.97880389 74.66529729 140.76690158 72 140 C71.68546875 138.71867188 71.3709375 137.43734375 71.046875 136.1171875 C68.22205616 124.6391464 68.22205616 124.6391464 65.0625 113.25 C63.13519853 106.64324229 61.43113822 99.98585571 59.75 93.3125 C59.47937744 92.24741211 59.20875488 91.18232422 58.92993164 90.08496094 C58.67977295 89.08368164 58.42961426 88.08240234 58.171875 87.05078125 C57.9459668 86.15012939 57.72005859 85.24947754 57.48730469 84.3215332 C57 82 57 82 57 79 C56.34 79 55.68 79 55 79 C54.77441406 79.68578125 54.54882812 80.3715625 54.31640625 81.078125 C52.66315234 84.74766186 50.42963357 87.61280215 47.9375 90.75 C47.47794922 91.33910156 47.01839844 91.92820312 46.54492188 92.53515625 C43.23028274 96.76971726 43.23028274 96.76971726 42 98 C36.4689505 97.5858732 32.18660154 95.99874896 27.25 93.6875 C25.84485015 93.05224838 24.43859256 92.41944146 23.03125 91.7890625 C22.00644531 91.32935059 22.00644531 91.32935059 20.9609375 90.86035156 C12.75661679 87.20387727 12.75661679 87.20387727 4 86 C4.27617533 87.94074861 4.27617533 87.94074861 5 90 C5.99 90.66 6.98 91.32 8 92 C7.1875 94.4375 7.1875 94.4375 6 97 C5.01 97.33 4.02 97.66 3 98 C3 98.66 3 99.32 3 100 C-3.78459956 105.28345172 -12.31870174 109 -21 109 C-21.32418704 103.46566403 -21.61639364 97.93131238 -21.87548828 92.39355469 C-21.97980534 90.38821263 -22.12382911 88.38498934 -22.27734375 86.3828125 C-22.62992548 79.76115568 -21.54082521 76.08374265 -17.41015625 70.83984375 C-11.39624688 62.99344122 -15.37116191 46.4774884 -16 37 C-21.445 38.98 -21.445 38.98 -27 41 C-27.33 47.6 -27.66 54.2 -28 61 C-29.32 61 -30.64 61 -32 61 C-32 53.08 -32 45.16 -32 37 C-27.38 34.69 -22.76 32.38 -18 30 C-18.99 29.34 -19.98 28.68 -21 28 C-20.5153125 27.66613281 -20.030625 27.33226562 -19.53125 26.98828125 C-17.22690569 23.9961607 -17.54611059 20.82035571 -17.5 17.1875 C-17.41765251 10.80556983 -16.53106514 6.47012699 -12.65234375 1.15234375 C-9.05512345 -1.35635599 -4.16178277 -0.56610199 0 0 Z " fill="#183333" transform="translate(188,189)"/>
<path d="M0 0 C0 39.27 0 78.54 0 119 C0.66 119 1.32 119 2 119 C2 116.36 2 113.72 2 111 C3.9914056 110.61866701 5.99279077 110.28674418 8 110 C9 111 9 111 9.11352539 113.50024414 C9.10828857 114.58426514 9.10305176 115.66828613 9.09765625 116.78515625 C9.09443359 117.95498047 9.09121094 119.12480469 9.08789062 120.33007812 C9.07532227 122.17762695 9.07532227 122.17762695 9.0625 124.0625 C9.05798828 125.29806641 9.05347656 126.53363281 9.04882812 127.80664062 C9.03699608 130.87114117 9.02051173 133.93554721 9 137 C6.625 137.125 6.625 137.125 4 137 C3.01 136.01 3.01 136.01 2 135 C2 133.68 2 132.36 2 131 C1.34 131 0.68 131 0 131 C0 133.64 0 136.28 0 139 C-4.06288884 138.52409357 -8.12523557 138.04370488 -12.1875 137.5625 C-13.91323242 137.36043945 -13.91323242 137.36043945 -15.67382812 137.15429688 C-16.78564453 137.02216797 -17.89746094 136.89003906 -19.04296875 136.75390625 C-20.06414795 136.63345947 -21.08532715 136.5130127 -22.13745117 136.38891602 C-24.78969581 136.02857267 -27.37904654 135.53714771 -30 135 C-30.46882694 120.10174755 -30.82064921 105.20406864 -31.03624344 90.29999256 C-31.13905339 83.37789593 -31.2789486 76.46040005 -31.50878906 69.54125977 C-31.7307627 62.85571012 -31.84584905 56.1759058 -31.89754486 49.48651695 C-31.93434568 46.94265439 -32.00622796 44.39903727 -32.11460114 41.85721779 C-32.90691626 22.49384093 -32.90691626 22.49384093 -28.08653259 16.7001915 C-23.38662543 12.65509399 -18.18124943 9.88387708 -12.58229828 7.28453636 C-9.06715013 5.53596392 -5.91244703 3.37504401 -2.69935989 1.12934589 C-1 0 -1 0 0 0 Z " fill="#FEAD33" transform="translate(700,116)"/>
<path d="M0 0 C0.37125 1.010625 0.7425 2.02125 1.125 3.0625 C3.630077 9.75480715 6.33289655 16.37108269 9 23 C10.77706209 20.33440687 11.87548273 17.9719385 13 15 C14.65 15 16.3 15 18 15 C15.26213592 38.73786408 15.26213592 38.73786408 13 41 C10.75 41.5625 10.75 41.5625 8 41 C4.71777567 37.14736061 2.83916748 32.66524063 1 28 C-1.70280223 46.50768771 -1.70280223 46.50768771 2.83251953 63.80664062 C7.26756964 68.01561203 12.40118738 70.78122839 18.02880859 73.10327148 C20 74 20 74 22 76 C25.21037139 89.17589925 25.0930912 103.52467669 26 117 C28.97 117.33 31.94 117.66 35 118 C34.505 119.485 34.505 119.485 34 121 C32.4176994 121.33820166 30.83410625 121.67035939 29.25 122 C27.92742187 122.2784375 27.92742187 122.2784375 26.578125 122.5625 C24 123 24 123 20 123 C17.77687663 116.94576596 16.38219685 111.12830296 15.5 104.75 C15.2256631 103.07675684 14.9509223 101.40357986 14.67578125 99.73046875 C14.22339012 96.84884645 13.98303486 94.23495297 13.91796875 91.30078125 C13.63320524 87.29961264 13.2551088 85.36960272 11 82 C4.29349809 76.9880133 -3.40448349 73.44840399 -11 70 C-11.21527344 70.76699219 -11.43054688 71.53398437 -11.65234375 72.32421875 C-13.51231029 77.39734487 -16.02910955 82.04739044 -18.5625 86.8125 C-19.06974609 87.77865234 -19.57699219 88.74480469 -20.09960938 89.74023438 C-23.8539109 96.8539109 -23.8539109 96.8539109 -25 98 C-26.53898823 98.22832484 -28.0871999 98.39512651 -29.63671875 98.53515625 C-30.60085693 98.6223291 -31.56499512 98.70950195 -32.55834961 98.79931641 C-34.10727905 98.92959229 -34.10727905 98.92959229 -35.6875 99.0625 C-36.72720947 99.15192871 -37.76691895 99.24135742 -38.83813477 99.33349609 C-46.58373902 99.96458824 -54.2275967 100.24246665 -62 100 C-62.2165625 101.1446875 -62.2165625 101.1446875 -62.4375 102.3125 C-63 105 -63 105 -64 108 C-64.66 108 -65.32 108 -66 108 C-66.02685095 105.52076199 -66.04676547 103.0418116 -66.0625 100.5625 C-66.07506836 99.50192383 -66.07506836 99.50192383 -66.08789062 98.41992188 C-66.09653588 96.61306441 -66.05220011 94.80612397 -66 93 C-64.12224852 91.12224852 -60.96928184 91.38191461 -58.4453125 91.0625 C-57.78796112 90.97750244 -57.13060974 90.89250488 -56.45333862 90.80493164 C-54.34438673 90.53258696 -52.23478325 90.26582213 -50.125 90 C-48.0224201 89.73375331 -45.92003492 89.46624356 -43.81808472 89.19506836 C-41.90533718 88.94846204 -39.99198701 88.70654358 -38.07861328 88.46484375 C-34.97114983 88.08540887 -34.97114983 88.08540887 -32 87 C-30.84075099 84.58121072 -29.86040508 82.25671405 -28.9375 79.75 C-28.68162109 79.08097656 -28.42574219 78.41195312 -28.16210938 77.72265625 C-27.43423356 75.81782956 -26.71687166 73.90899528 -26 72 C-25.3382315 70.3313824 -24.67388737 68.66376021 -24 67 C-24.99 67 -25.98 67 -27 67 C-25.78478863 55.75187407 -24.22948681 44.60114475 -22.34057617 33.4465332 C-21.92909551 31.01279081 -21.52572742 28.57779053 -21.12304688 26.14257812 C-20.86244726 24.58585907 -20.60139759 23.02921527 -20.33984375 21.47265625 C-20.22003647 20.74885269 -20.10022919 20.02504913 -19.97679138 19.27931213 C-19.11533464 14.23066929 -19.11533464 14.23066929 -18 12 C-22.95 14.31 -27.9 16.62 -33 19 C-33.185625 21.9390625 -33.185625 21.9390625 -33.375 24.9375 C-33.79338756 30.47961923 -34.63216042 35.61983099 -36 41 C-37.65 41 -39.3 41 -41 41 C-41.26210888 36.62614201 -41.42144886 32.25430191 -41.5625 27.875 C-41.63791016 26.6375 -41.71332031 25.4 -41.79101562 24.125 C-42.0081264 15.15108809 -42.0081264 15.15108809 -39.20263672 11.94775391 C-36.87140333 10.38551578 -34.5422562 9.1824328 -32 8 C-30.80173636 7.23802242 -29.61303315 6.46065988 -28.4375 5.6640625 C-18.73199056 -0.09306924 -11.16796319 -0.98420239 0 0 Z " fill="#183232" transform="translate(463,207)"/>
<path d="M0 0 C0.66 0 1.32 0 2 0 C2.79467142 2.81168096 3.58579233 5.62428502 4.375 8.4375 C4.59671875 9.22060547 4.8184375 10.00371094 5.046875 10.81054688 C6.35823519 15.49673109 7.50675694 20.18728676 8.53515625 24.94311523 C9.17418942 27.77076989 9.98321265 30.53526958 10.8125 33.3125 C13.47726952 42.47327371 15.72592059 51.73592241 18 61 C20.64 61 23.28 61 26 61 C23.12418587 62.63270104 21.08199625 63.24741973 17.78222656 63.22705078 C16.5514035 63.22682419 16.5514035 63.22682419 15.29571533 63.22659302 C13.98144562 63.21110916 13.98144562 63.21110916 12.640625 63.1953125 C11.73624695 63.1924826 10.8318689 63.18965271 9.90008545 63.18673706 C7.01658805 63.17555782 4.13340325 63.15045733 1.25 63.125 C-0.70702676 63.11496728 -2.66405839 63.10584194 -4.62109375 63.09765625 C-9.41418262 63.07562585 -14.20703834 63.04111144 -19 63 C-19 63.66 -19 64.32 -19 65 C-22.39620731 67.08997373 -25.05163095 67.2632246 -29 67 C-29.33 66.67 -29.66 66.34 -30 66 C-30.495 67.485 -30.495 67.485 -31 69 C-29.35 69.33 -27.7 69.66 -26 70 C-35.299412 75.60898828 -51.86798318 73.1562231 -62.45239258 73.13037109 C-65.0627216 73.12499954 -67.67287919 73.13035867 -70.28320312 73.13671875 C-94.21244092 73.14747181 -94.21244092 73.14747181 -104 71 C-104 70.34 -104 69.68 -104 69 C-95.58214513 68.04958074 -87.26659892 67.86754551 -78.80078125 67.90234375 C-76.82648384 67.90446617 -76.82648384 67.90446617 -74.81230164 67.90663147 C-71.35183736 67.91040786 -67.89141659 67.92019505 -64.43096924 67.93133545 C-60.88432402 67.94165586 -57.33767161 67.94615162 -53.79101562 67.95117188 C-46.86065947 67.96182288 -39.93033184 67.9788389 -33 68 C-33.32355469 67.41033447 -33.64710938 66.82066895 -33.98046875 66.21313477 C-35 64 -35 64 -35.3125 60.58984375 C-35.9840606 54.23799971 -38.66094485 48.45237082 -41 42.5625 C-41.4640625 41.36689453 -41.928125 40.17128906 -42.40625 38.93945312 C-44.09705647 33.60988803 -44.09705647 33.60988803 -47 29 C-47.04092937 26.66702567 -47.04241723 24.33294775 -47 22 C-48.32 21.67 -49.64 21.34 -51 21 C-50.690625 20.4225 -50.38125 19.845 -50.0625 19.25 C-49.07416636 17.15705816 -48.4831387 15.25464725 -48 13 C-49.32 12.01 -50.64 11.02 -52 10 C-51.67 8.68 -51.34 7.36 -51 6 C-40.29818089 6.74663854 -30.33342822 12.16953624 -20.875 16.86328125 C-17.87145951 18.0508224 -16.18438564 18.36169324 -13 18 C-11.25088027 16.5921387 -11.25088027 16.5921387 -9.921875 14.5703125 C-9.14070313 13.50103516 -9.14070313 13.50103516 -8.34375 12.41015625 C-7.8178125 11.65605469 -7.291875 10.90195312 -6.75 10.125 C-6.20859375 9.37863281 -5.6671875 8.63226563 -5.109375 7.86328125 C-2.33820928 4.06477033 -2.33820928 4.06477033 0 0 Z " fill="#01B2A9" transform="translate(243,268)"/>
<path d="M0 0 C5.96097878 -0.25365867 9.8363743 0.6303054 16 2 C16 9.26 16 16.52 16 24 C20.49693763 22.50102079 24.01416869 21.03638108 28.0703125 18.8046875 C30 18 30 18 34 18 C34.495 20.475 34.495 20.475 35 23 C34.39937744 23.27972656 33.79875488 23.55945313 33.17993164 23.84765625 C22.12945052 28.66415886 22.12945052 28.66415886 13.95458984 36.92919922 C12.74790299 41.64052441 13.48983356 46.22427523 14 51 C13.6668529 53.20836144 13.33353181 55.41669663 13 57.625 C12.96577084 61.06075175 13.2903472 63.12396366 15.4765625 65.82275391 C18.07545791 68.44543628 20.77299284 70.85992956 23.6640625 73.15673828 C28.77052991 77.26205655 28.77052991 77.26205655 29.88671875 80.8515625 C28.51170387 85.73377391 25.51865503 89.07794274 22.3125 92.9375 C19.86961191 95.95400136 17.43060173 98.97358853 15 102 C14.46938965 102.65500488 13.9387793 103.31000977 13.39208984 103.98486328 C11.80257755 105.98410298 11.80257755 105.98410298 10 109 C10.46113337 112.42030827 11.92890139 114.29856703 14 117 C14 117.66 14 118.32 14 119 C10.56072421 117.7580393 7.74792181 116.44259716 5 114 C5 113.34 5 112.68 5 112 C3.68 111.67 2.36 111.34 1 111 C3.00193739 101.03633459 10.65853039 91.52737153 16 83 C12.93964597 79.85854118 9.85875136 76.97619305 6.375 74.3125 C5.61960938 73.73113281 4.86421875 73.14976562 4.0859375 72.55078125 C2.4266502 71.31719125 0.72034897 70.14689932 -1 69 C-1.24234375 69.81210937 -1.4846875 70.62421875 -1.734375 71.4609375 C-7.55462026 87.73606776 -17.99788723 103.16447207 -28.98510742 116.3894043 C-29.94767456 117.55209839 -29.94767456 117.55209839 -30.9296875 118.73828125 C-31.51862793 119.42446533 -32.10756836 120.11064941 -32.71435547 120.81762695 C-35.02563566 124.74100971 -34.05515376 128.75278444 -33 133 C-33.66 133 -34.32 133 -35 133 C-36.01034498 131.25595212 -37.00792422 129.50450439 -38 127.75 C-38.8353125 126.28820312 -38.8353125 126.28820312 -39.6875 124.796875 C-41 122 -41 122 -41 118 C-39.515 117.505 -39.515 117.505 -38 117 C-37.30587612 115.00936279 -36.64622486 113.00669825 -36 111 C-34.51859618 108.15533234 -32.85147592 105.42843473 -31.1875 102.6875 C-30.27955462 101.1616923 -29.37199772 99.63565336 -28.46484375 98.109375 C-27.13360124 95.88416306 -25.79492731 93.66489374 -24.44140625 91.453125 C-17.55317468 79.79959225 -14.33634872 67.3418831 -12.34423828 54.09912109 C-11.99557541 51.97301944 -11.574198 49.87570838 -11.12109375 47.76953125 C-10.97567139 47.092854 -10.83024902 46.41617676 -10.68041992 45.71899414 C-10.27599713 43.86892617 -9.86479284 42.02034433 -9.453125 40.171875 C-8.55717631 33.90023418 -10.95264119 29.94017962 -13.94140625 24.59765625 C-15.26896627 21.33999053 -15.63311746 19.48439115 -15 16 C-12.89668209 13.86409547 -11.00491881 12.19733448 -8.625 10.4375 C-2.96137424 6.26861427 -2.96137424 6.26861427 0 0 Z " fill="#183131" transform="translate(110,202)"/>
<path d="M0 0 C1.66674321 2.91824244 2.2432008 4.97594379 2.1953125 8.328125 C2.18886719 9.12734375 2.18242187 9.9265625 2.17578125 10.75 C2.15064453 11.9875 2.15064453 11.9875 2.125 13.25 C2.11597656 14.09046875 2.10695313 14.9309375 2.09765625 15.796875 C2.07415817 17.86470604 2.03828908 19.93238995 2 22 C2.59868896 21.72357666 3.19737793 21.44715332 3.81420898 21.16235352 C17.23619459 15 17.23619459 15 23 15 C23.495 17.475 23.495 17.475 24 20 C2.27808989 31 2.27808989 31 -1 31 C-1.01458252 31.95890137 -1.02916504 32.91780273 -1.04418945 33.90576172 C-1.10209507 37.4582274 -1.17932671 41.01005398 -1.26245117 44.56201172 C-1.2957373 46.10031779 -1.32375778 47.63874707 -1.34643555 49.17724609 C-1.37991558 51.38692818 -1.4322231 53.59547735 -1.48828125 55.8046875 C-1.49467117 56.49432587 -1.5010611 57.18396423 -1.50764465 57.89450073 C-1.56762695 59.83544922 -1.56762695 59.83544922 -2 63 C-2.99 63.66 -3.98 64.32 -5 65 C-4.34586166 73.97019665 -3.03908393 82.81228823 -1.625 91.6875 C-1.40008048 93.11685159 -1.1752273 94.54621363 -0.95043945 95.97558594 C0.3866279 104.4260838 1.81797743 112.84881697 3.51953125 121.234375 C4 124 4 124 4 128 C6.64 128 9.28 128 12 128 C12.33 128.99 12.66 129.98 13 131 C11.0852312 131.36428777 9.16807707 131.71605306 7.25 132.0625 C6.18265625 132.25972656 5.1153125 132.45695313 4.015625 132.66015625 C1.18808504 132.97880389 -0.33470271 132.76690158 -3 132 C-3.31453125 130.71867188 -3.6290625 129.43734375 -3.953125 128.1171875 C-6.77794384 116.6391464 -6.77794384 116.6391464 -9.9375 105.25 C-11.86480147 98.64324229 -13.56886178 91.98585571 -15.25 85.3125 C-15.52062256 84.24741211 -15.79124512 83.18232422 -16.07006836 82.08496094 C-16.4453064 80.58304199 -16.4453064 80.58304199 -16.828125 79.05078125 C-17.0540332 78.15012939 -17.27994141 77.24947754 -17.51269531 76.3215332 C-18 74 -18 74 -18 71 C-18.66 71 -19.32 71 -20 71 C-20.22558594 71.68578125 -20.45117188 72.3715625 -20.68359375 73.078125 C-22.33684766 76.74766186 -24.57036643 79.61280215 -27.0625 82.75 C-27.52205078 83.33910156 -27.98160156 83.92820312 -28.45507812 84.53515625 C-31.76971726 88.76971726 -31.76971726 88.76971726 -33 90 C-38.35642205 89.59421045 -42.7012613 88.02207788 -47.5 85.75 C-60.3132161 79.56164626 -60.3132161 79.56164626 -74 77 C-73.34 74.03 -72.68 71.06 -72 68 C-67.10780784 68.80378817 -62.51065466 70.40069039 -57.8125 71.9375 C-51.24703677 74.0543402 -44.82107486 75.88179101 -38 77 C-36.89500435 75.27136297 -35.79104086 73.54206612 -34.6875 71.8125 C-34.07261719 70.84957031 -33.45773438 69.88664062 -32.82421875 68.89453125 C-32.22222656 67.93933594 -31.62023437 66.98414063 -31 66 C-30.40832031 65.22011719 -29.81664062 64.44023437 -29.20703125 63.63671875 C-27.7800155 60.51945134 -28.23621992 58.70093925 -28.80175781 55.39990234 C-29.22288357 50.30179123 -27.88674709 45.28692318 -26.875 40.3125 C-26.67390625 39.19810547 -26.4728125 38.08371094 -26.265625 36.93554688 C-25.02781535 30.71294353 -24.11615426 26.89378196 -19 23 C-18.21625 22.21625 -17.4325 21.4325 -16.625 20.625 C-15.23157371 19.23157371 -13.82995834 17.84467349 -12.375 16.515625 C-7.18617661 11.65110307 -3.62402939 6.09145366 0 0 Z " fill="#183333" transform="translate(263,197)"/>
<path d="M0 0 C0.33 0 0.66 0 1 0 C1.66 8.58 2.32 17.16 3 26 C9.6 25.34 16.2 24.68 23 24 C23 25.65 23 27.3 23 29 C18.33333333 30.33333333 13.66666667 31.66666667 9 33 C7.77410156 33.37382812 6.54820312 33.74765625 5.28515625 34.1328125 C2 35 2 35 -2 35 C-3.0054976 41.5792415 -3.93325151 48.53188181 -2 55 C1.60352637 59.70785189 6.93682836 62.19179421 12.08349609 64.89794922 C14.96812272 66.5567014 16.99253531 68.35472576 19 71 C19.1679255 75.60699947 16.47043677 78.21720954 13.5625 81.5625 C9.76628332 85.9482175 9.76628332 85.9482175 7 91 C6.34 91 5.68 91 5 91 C4.690625 91.61875 4.38125 92.2375 4.0625 92.875 C3.375 94.25 2.6875 95.625 2 97 C1.77141886 99.0374763 1.58975722 101.08040303 1.4375 103.125 C1.35371094 104.22070312 1.26992188 105.31640625 1.18359375 106.4453125 C1.09271484 107.70988281 1.09271484 107.70988281 1 109 C-0.65 107.68 -2.3 106.36 -4 105 C-3.35455571 108.48539917 -1.89865603 111.02819057 0 114 C-1.32 114 -2.64 114 -4 114 C-4 113.34 -4 112.68 -4 112 C-4.8353125 111.5978125 -4.8353125 111.5978125 -5.6875 111.1875 C-6.450625 110.795625 -7.21375 110.40375 -8 110 C-8.9075 109.54625 -9.815 109.0925 -10.75 108.625 C-11.4925 108.08875 -12.235 107.5525 -13 107 C-13 105.68 -13 104.36 -13 103 C-12.34 103 -11.68 103 -11 103 C-10.90017822 102.45037598 -10.80035645 101.90075195 -10.69750977 101.33447266 C-9.82939078 98.42899358 -8.4474158 96.22010716 -6.83984375 93.6484375 C-6.21142578 92.63265625 -5.58300781 91.616875 -4.93554688 90.5703125 C-4.27619141 89.51585937 -3.61683594 88.46140625 -2.9375 87.375 C-1.63010902 85.28114156 -0.32651457 83.18490618 0.97265625 81.0859375 C1.55281494 80.1582959 2.13297363 79.2306543 2.73071289 78.27490234 C4.16241384 76.14308543 4.16241384 76.14308543 4 74 C1.75335738 72.68144905 -0.49697306 71.37006028 -2.75 70.0625 C-3.38421875 69.68931641 -4.0184375 69.31613281 -4.671875 68.93164062 C-7.76291632 67.14463236 -10.51467668 65.75114727 -14 65 C-14.30478271 65.62640381 -14.60956543 66.25280762 -14.92358398 66.89819336 C-21.89947503 81.09594096 -29.46310387 94.23438227 -38.61303711 107.11303711 C-39.31436768 108.10440674 -40.01569824 109.09577637 -40.73828125 110.1171875 C-41.36774658 110.98972168 -41.99721191 111.86225586 -42.64575195 112.76123047 C-44.25878991 114.99173399 -44.25878991 114.99173399 -44 118 C-42.35178756 119.03013277 -40.68496298 120.03114628 -39 121 C-39 121.66 -39 122.32 -39 123 C-44.23880078 122.44854729 -48.97350697 121.57077907 -54 120 C-53.37804792 115.47357095 -51.57052502 111.76284416 -49.5 107.75 C-49.14687744 107.05181152 -48.79375488 106.35362305 -48.42993164 105.63427734 C-46.57826193 101.99427063 -44.67707133 98.38627805 -42.71484375 94.8046875 C-36.69871903 83.79100713 -30.90647999 72.28632926 -28 60 C-29.485 59.505 -29.485 59.505 -31 59 C-30.63111652 56.53477867 -30.23166682 54.08172101 -29.8125 51.625 C-29.71130859 50.92632812 -29.61011719 50.22765625 -29.50585938 49.5078125 C-29.14453125 47.4765625 -29.14453125 47.4765625 -28 44 C-25.38671875 42.5234375 -25.38671875 42.5234375 -23 42 C-23.53725895 38.62294375 -24.11064623 35.303314 -25 32 C-24.195625 31.566875 -23.39125 31.13375 -22.5625 30.6875 C-13.48279189 24.57041966 -3.48806743 10.46420228 0 0 Z " fill="#183232" transform="translate(338,214)"/>
<path d="M0 0 C3.875 1.875 3.875 1.875 5 3 C4.5281625 12.27947074 1.55585229 20.85371936 -1.1171875 29.6953125 C-3.02622435 36.14702097 -4.7994201 42.24944893 -5 49 C-2.78400729 52.03907571 -1.23743831 53.56522438 2.3125 54.8125 C2.869375 54.874375 3.42625 54.93625 4 55 C4 55.66 4 56.32 4 57 C-3.51496671 58.19607578 -10.97646994 58.14568053 -18.5703125 58.1328125 C-19.9794008 58.13348738 -21.388489 58.13445894 -22.7975769 58.13571167 C-25.73762124 58.137179 -28.67763502 58.13506461 -31.61767578 58.13037109 C-35.37448104 58.12466383 -39.13121499 58.12796524 -42.88801765 58.13394356 C-45.79288261 58.1375663 -48.69773081 58.13640289 -51.60259628 58.13381577 C-52.98759851 58.13315178 -54.37260228 58.13395631 -55.75760269 58.13629532 C-57.69533507 58.1388512 -59.63307283 58.13426128 -61.57080078 58.12939453 C-62.6703006 58.12859894 -63.76980042 58.12780334 -64.90261841 58.12698364 C-68.01130092 57.9995367 -70.94573574 57.57826428 -74 57 C-74 56.34 -74 55.68 -74 55 C-71.03 55 -68.06 55 -65 55 C-65 55.66 -65 56.32 -65 57 C-63.515 56.505 -63.515 56.505 -62 56 C-63.0209375 54.88625 -63.0209375 54.88625 -64.0625 53.75 C-66 51 -66 51 -65.75 48.6875 C-65.5025 48.130625 -65.255 47.57375 -65 47 C-63.68 48.32 -62.36 49.64 -61 51 C-60.97421875 50.27554688 -60.9484375 49.55109375 -60.921875 48.8046875 C-60.86515625 47.83789062 -60.8084375 46.87109375 -60.75 45.875 C-60.70359375 44.92367187 -60.6571875 43.97234375 -60.609375 42.9921875 C-59.36453935 36.87972526 -55.61806298 33.32433045 -50.5703125 29.984375 C-49.00603516 28.94410156 -49.00603516 28.94410156 -47.41015625 27.8828125 C-46.32605469 27.17898438 -45.24195313 26.47515625 -44.125 25.75 C-43.04863281 25.03070313 -41.97226562 24.31140625 -40.86328125 23.5703125 C-32.80559555 18.26475866 -32.80559555 18.26475866 -28.69873047 16.91503906 C-27.36285889 16.46209473 -27.36285889 16.46209473 -26 16 C-25.03122943 13.96756452 -25.03122943 13.96756452 -25 12 C-24.02160156 11.79246094 -23.04320312 11.58492188 -22.03515625 11.37109375 C-13.03434098 9.30979451 -6.67293534 6.67293534 0 0 Z " fill="#02B1A8" transform="translate(399,271)"/>
<path d="M0 0 C1.70507276 0.01006901 3.4101514 0.0191878 5.11523438 0.02734375 C9.22292861 0.04727434 13.32977366 0.08647 17.4375 0.125 C17.4375 11.015 17.4375 21.905 17.4375 33.125 C0.56021658 31.99984777 0.56021658 31.99984777 -5.18457031 31.20117188 C-6.47510315 31.02428833 -7.76563599 30.84740479 -9.09527588 30.66516113 C-10.44375383 30.47489082 -11.79220292 30.28441584 -13.140625 30.09375 C-14.56926279 29.89541192 -15.9979546 29.6974626 -17.42669678 29.49987793 C-20.3850325 29.08963572 -23.34284755 28.6758883 -26.30029297 28.25927734 C-30.08889906 27.72571575 -33.87848508 27.19952668 -37.66844559 26.67568207 C-40.60265691 26.26960599 -43.53645181 25.86058775 -46.47011566 25.45057678 C-47.8686614 25.2553075 -49.26730683 25.06075086 -50.66605377 24.8669281 C-52.60882449 24.59709701 -54.55100998 24.32306234 -56.49316406 24.04882812 C-58.14738373 23.8168573 -58.14738373 23.8168573 -59.83502197 23.5802002 C-62.5625 23.125 -62.5625 23.125 -65.5625 22.125 C-65.5625 18.165 -65.5625 14.205 -65.5625 10.125 C-59.41168626 7.18491103 -53.75242569 5.23688337 -47.0625 4 C-46.29164063 3.84402344 -45.52078125 3.68804687 -44.7265625 3.52734375 C-29.7958356 0.64137258 -15.16612302 -0.1587762 0 0 Z " fill="#32AD33" transform="translate(644.5625,296.875)"/>
<path d="M0 0 C4.0640775 0.7837064 8.12594107 1.57835263 12.1875 2.375 C13.33798828 2.59671875 14.48847656 2.8184375 15.67382812 3.046875 C17.34155273 3.37558594 17.34155273 3.37558594 19.04296875 3.7109375 C20.06414795 3.90993652 21.08532715 4.10893555 22.13745117 4.31396484 C25 5 25 5 30 7 C30 31.42 30 55.84 30 81 C19.86680541 75.37044745 19.86680541 75.37044745 16.54296875 73.2109375 C15.46305664 72.51097656 15.46305664 72.51097656 14.36132812 71.796875 C13.64396484 71.32765625 12.92660156 70.8584375 12.1875 70.375 C11.45080078 69.89804687 10.71410156 69.42109375 9.95507812 68.9296875 C7.96047867 67.63238704 5.96847765 66.3366238 4 65 C2.96613914 64.40479301 2.96613914 64.40479301 1.91139221 63.79756165 C0 62 0 62 -0.48101807 59.28547668 C-0.47213562 58.19071518 -0.46325317 57.09595367 -0.45410156 55.96801758 C-0.45379944 54.72695755 -0.45349731 53.48589752 -0.45318604 52.20722961 C-0.43275953 50.85299032 -0.41189555 49.49875755 -0.390625 48.14453125 C-0.38316337 46.75877193 -0.37747007 45.37300204 -0.37347412 43.98722839 C-0.35821123 40.34224241 -0.31892501 36.69789538 -0.2746582 33.05316162 C-0.23371889 29.33305505 -0.21546605 25.6128451 -0.1953125 21.89257812 C-0.15243033 14.59476099 -0.0841724 7.29747006 0 0 Z " fill="#FEAD33" transform="translate(670,265)"/>
<path d="M0 0 C2.31 0 4.62 0 7 0 C7 87.78 7 175.56 7 266 C4.69 266 2.38 266 0 266 C0 178.22 0 90.44 0 0 Z " fill="#B97307" transform="translate(712,98)"/>
<path d="M0 0 C4.49484245 4.26301676 6.81814831 8.42050367 7.25390625 14.6015625 C7.25036774 18.07637881 7.16951569 21.52963718 7 25 C7 25.33 7 25.66 7 26 C7.928125 25.319375 8.85625 24.63875 9.8125 23.9375 C10.864375 23.298125 11.91625 22.65875 13 22 C13.99 22.33 14.98 22.66 16 23 C14.51710643 26.86222564 12.51700549 28.05189528 9.0625 30.1875 C3.66505044 34.45617513 1.8274398 38.75345618 0.58105469 45.33837891 C0.1756584 49.98617606 1.00918464 52.58376112 3.95703125 56.21484375 C7.35639677 59.81307037 11.06527061 63.00228255 15 66 C12.3293597 71.61873086 8.05104332 75.43181924 2.17480469 77.70654297 C-3.46093494 79.52393588 -9.05333858 81 -15 81 C-15.14639602 76.52118255 -15.23444271 72.04298843 -15.3125 67.5625 C-15.3753418 65.67241211 -15.3753418 65.67241211 -15.43945312 63.74414062 C-15.54325335 55.79304323 -14.75302375 50.45199588 -10 44 C-7.07678647 39.85878083 -5.48480317 37.09043332 -5 32 C-3.35 32.33 -1.7 32.66 0 33 C0.33 32.01 0.66 31.02 1 30 C0.67 29.34 0.34 28.68 0 28 C-0.763125 28 -1.52625 28 -2.3125 28 C-8.60260558 28 -10.1848478 26.44532057 -14.6875 22.25 C-15.29400391 21.71117187 -15.90050781 21.17234375 -16.52539062 20.6171875 C-17.38487305 19.82441406 -17.38487305 19.82441406 -18.26171875 19.015625 C-18.78725342 18.53383789 -19.31278809 18.05205078 -19.85424805 17.55566406 C-21 16 -21 16 -21 12 C-19.35451172 11.07767578 -19.35451172 11.07767578 -17.67578125 10.13671875 C-16.22133265 9.32035083 -14.76690677 8.50394244 -13.3125 7.6875 C-12.59126953 7.28337891 -11.87003906 6.87925781 -11.12695312 6.46289062 C-7.38447704 4.360952 -3.66585243 2.23421775 0 0 Z " fill="#193030" transform="translate(385,203)"/>
<path d="M0 0 C-2.88971101 1.92647401 -3.97266786 2.33260599 -7.25390625 2.78125 C-8.09783936 2.89976318 -8.94177246 3.01827637 -9.8112793 3.14038086 C-10.71918213 3.25905518 -11.62708496 3.37772949 -12.5625 3.5 C-13.51358643 3.62963135 -14.46467285 3.7592627 -15.44458008 3.89282227 C-21.70363508 4.73304458 -27.96950075 5.49102932 -34.24951172 6.15576172 C-39.65136192 6.72888056 -45.0446811 7.36001759 -50.4375 8.01171875 C-51.97110577 8.19608034 -53.50471584 8.38040614 -55.03833008 8.56469727 C-57.34927744 8.84252683 -59.66003122 9.1216308 -61.9703064 9.40499878 C-64.15034401 9.6721671 -66.33095237 9.93416885 -68.51171875 10.1953125 C-69.78490967 10.35016113 -71.05810059 10.50500977 -72.36987305 10.66455078 C-75.8999727 10.99075678 -79.45486052 11 -83 11 C-83 70.07 -83 129.14 -83 190 C-84.32 190 -85.64 190 -87 190 C-87 130.6 -87 71.2 -87 10 C-8.5142773 -0.23726818 -8.5142773 -0.23726818 0 0 Z " fill="#BF6F00" transform="translate(662,130)"/>
<path d="M0 0 C0 0.66 0 1.32 0 2 C-0.66 2.33 -1.32 2.66 -2 3 C-2.18369141 4.59521484 -2.18369141 4.59521484 -2.37109375 6.22265625 C-3.08655074 10.51984205 -4.24146657 12.18097256 -7.0625 15.4375 C-7.87074219 16.37207031 -8.67898438 17.30664062 -9.51171875 18.26953125 C-18.98082192 28.66027397 -18.98082192 28.66027397 -23 30 C-22.68985608 27.91631462 -22.3767948 25.83306332 -22.0625 23.75 C-21.80146484 22.00976562 -21.80146484 22.00976562 -21.53515625 20.234375 C-21 17 -21 17 -20 13 C-24.95 14.485 -24.95 14.485 -30 16 C-31.05152839 21.25764195 -30.63781325 23.10318051 -29.0625 28.0625 C-27.81919479 32.01157452 -27 34.8386542 -27 39 C-29.375 39.625 -29.375 39.625 -32 40 C-34.54927202 37.45072798 -34.93929962 35.3306174 -35.9375 31.875 C-37.07675822 27.99466935 -38.25424406 24.23123669 -39.8125 20.5 C-41.07287568 16.78520853 -41.34439665 15.59987202 -40 12 C-36.00677439 8.81987463 -31.45438624 6.47965833 -27 4 C-26.10925781 3.46375 -25.21851563 2.9275 -24.30078125 2.375 C-16.38816069 -2.11009249 -8.77043284 -1.8963098 0 0 Z " fill="#183232" transform="translate(338,209)"/>
<path d="M0 0 C5.94 1.485 5.94 1.485 12 3 C12.33 4.65 12.66 6.3 13 8 C14.26855884 9.81113721 14.26855884 9.81113721 15.94140625 11.33203125 C16.81635742 12.18764648 16.81635742 12.18764648 17.70898438 13.06054688 C18.62647461 13.92776367 18.62647461 13.92776367 19.5625 14.8125 C20.48579102 15.7087207 20.48579102 15.7087207 21.42773438 16.62304688 C22.94293249 18.0912621 24.47030438 19.54689553 26 21 C23.71917284 26.27947809 19.90985014 29.16334395 15 32 C8.93506639 34.34776858 2.50573448 36 -4 36 C-4.11690073 31.50022116 -4.18748837 27.00083713 -4.25 22.5 C-4.28351563 21.2315625 -4.31703125 19.963125 -4.3515625 18.65625 C-4.42862955 11.25781353 -4.02734243 6.27884883 0 0 Z " fill="#326565" transform="translate(374,248)"/>
<path d="M0 0 C2.29225435 0.11371497 4.58382388 0.24130964 6.875 0.375 C8.15117187 0.44460937 9.42734375 0.51421875 10.7421875 0.5859375 C14 1 14 1 16 3 C15.67 3.99 15.34 4.98 15 6 C14.92007813 6.76441406 14.84015625 7.52882812 14.7578125 8.31640625 C13.71711424 12.00176555 11.47017582 14.24684089 8.875 16.9375 C8.38088623 17.46311523 7.88677246 17.98873047 7.37768555 18.53027344 C3.79484988 22.29578178 0.06166563 25.75066749 -4 29 C-4.66 28.67 -5.32 28.34 -6 28 C-5.52396226 25.87429688 -5.04407402 23.74945573 -4.5625 21.625 C-4.29566406 20.44164062 -4.02882812 19.25828125 -3.75390625 18.0390625 C-3 15 -3 15 -2 13 C-3.216875 13.495 -4.43375 13.99 -5.6875 14.5 C-8.92486738 15.72479441 -11.50099357 16.32803185 -15 16 C-15.22945312 16.64453125 -15.45890625 17.2890625 -15.6953125 17.953125 C-17.4575215 22.06846338 -19.6355604 25.8783158 -21.875 29.75 C-22.30941406 30.52988281 -22.74382812 31.30976563 -23.19140625 32.11328125 C-23.62066406 32.85449219 -24.04992187 33.59570312 -24.4921875 34.359375 C-25.07009033 35.37209473 -25.07009033 35.37209473 -25.65966797 36.40527344 C-27.33586775 38.39961532 -28.4377437 38.72667571 -31 39 C-31.66 38.67 -32.32 38.34 -33 38 C-32.0894493 32.70436756 -30.03443151 28.3276174 -27.75 23.5 C-27.36714844 22.65824219 -26.98429688 21.81648438 -26.58984375 20.94921875 C-22.88588899 13.08296032 -19.09137807 9.06446249 -10.875 5.75 C-9.04582031 4.99976563 -9.04582031 4.99976563 -7.1796875 4.234375 C-5.13774697 3.44168064 -3.07800311 2.6926677 -1 2 C-0.67 1.34 -0.34 0.68 0 0 Z " fill="#183131" transform="translate(247,188)"/>
<path d="M0 0 C0.495 2.475 0.495 2.475 1 5 C3.64 5 6.28 5 9 5 C6.12418587 6.63270104 4.08199625 7.24741973 0.78222656 7.22705078 C-0.4485965 7.22682419 -0.4485965 7.22682419 -1.70428467 7.22659302 C-3.01855438 7.21110916 -3.01855438 7.21110916 -4.359375 7.1953125 C-5.26375305 7.1924826 -6.1681311 7.18965271 -7.09991455 7.18673706 C-9.98341195 7.17555782 -12.86659675 7.15045733 -15.75 7.125 C-17.70702676 7.11496728 -19.66405839 7.10584194 -21.62109375 7.09765625 C-26.41418262 7.07562585 -31.20703834 7.04111144 -36 7 C-36 7.66 -36 8.32 -36 9 C-39.39620731 11.08997373 -42.05163095 11.2632246 -46 11 C-46.495 10.505 -46.495 10.505 -47 10 C-47.33 10.99 -47.66 11.98 -48 13 C-46.35 13.33 -44.7 13.66 -43 14 C-52.299412 19.60898828 -68.86798318 17.1562231 -79.45239258 17.13037109 C-82.0627216 17.12499954 -84.67287919 17.13035867 -87.28320312 17.13671875 C-111.21244092 17.14747181 -111.21244092 17.14747181 -121 15 C-121 14.34 -121 13.68 -121 13 C-112.58214513 12.04958074 -104.26659892 11.86754551 -95.80078125 11.90234375 C-94.48458298 11.9037587 -93.1683847 11.90517365 -91.81230164 11.90663147 C-88.35183736 11.91040786 -84.89141659 11.92019505 -81.43096924 11.93133545 C-77.88432402 11.94165586 -74.33767161 11.94615162 -70.79101562 11.95117188 C-63.86065947 11.96182288 -56.93033184 11.9788389 -50 12 C-50.350625 11.401875 -50.70125 10.80375 -51.0625 10.1875 C-52 8 -52 8 -51 5 C-49.35 5 -47.7 5 -46 5 C-46 4.01 -46 3.02 -46 2 C-36.47148823 0.93881701 -26.95018078 0.68397187 -17.375 0.4375 C-15.79556427 0.39419446 -14.21613706 0.35057687 -12.63671875 0.30664062 C-1.51131838 0 -1.51131838 0 0 0 Z " fill="#3B9D98" transform="translate(260,324)"/>
<path d="M0 0 C1.2065625 0.0309375 1.2065625 0.0309375 2.4375 0.0625 C2.7675 2.0425 3.0975 4.0225 3.4375 6.0625 C5.9125 6.5575 5.9125 6.5575 8.4375 7.0625 C9.0975 5.7425 9.7575 4.4225 10.4375 3.0625 C12.9125 3.5575 12.9125 3.5575 15.4375 4.0625 C15.1075 6.7025 14.7775 9.3425 14.4375 12.0625 C16.4175 12.3925 18.3975 12.7225 20.4375 13.0625 C19.84810025 15.04611438 19.24052211 17.02433541 18.625 19 C18.28855469 20.10214844 17.95210937 21.20429688 17.60546875 22.33984375 C17.22003906 23.23832031 16.83460938 24.13679688 16.4375 25.0625 C13.4375 26.0625 13.4375 26.0625 10.1875 25.125 C6.38452817 24.04749131 3.3621214 23.98845054 -0.5625 24.0625 C-3 23.5625 -3 23.5625 -4.5625 23.0625 C-4.5625 22.0725 -4.5625 21.0825 -4.5625 20.0625 C-5.614375 19.93875 -6.66625 19.815 -7.75 19.6875 C-11.5625 19.0625 -11.5625 19.0625 -16.5625 17.0625 C-15.5725 12.4425 -14.5825 7.8225 -13.5625 3.0625 C-13.2325 3.7225 -12.9025 4.3825 -12.5625 5.0625 C-10.66716658 5.52773063 -10.66716658 5.52773063 -8.5 5.6875 C-7.200625 5.81125 -5.90125 5.935 -4.5625 6.0625 C-4.418125 5.258125 -4.27375 4.45375 -4.125 3.625 C-3.347189 0.08163876 -3.347189 0.08163876 0 0 Z " fill="#016567" transform="translate(209.5625,228.9375)"/>
<path d="M0 0 C0.66 0 1.32 0 2 0 C2.48223053 5.24129245 1.06771864 8.34098245 -1.8125 12.5625 C-2.20977295 13.16094727 -2.6070459 13.75939453 -3.01635742 14.37597656 C-6.05602741 18.85129072 -9.34774089 23.09710368 -12.8125 27.25 C-13.26794189 27.79857666 -13.72338379 28.34715332 -14.19262695 28.91235352 C-16.55444432 31.65484282 -18.58809403 33.69568163 -22 35 C-21.855625 35.53625 -21.71125 36.0725 -21.5625 36.625 C-20.90320473 39.40869112 -20.37814312 42.16392663 -20 45 C-21 46 -21 46 -24.0625 46.0625 C-25.031875 46.041875 -26.00125 46.02125 -27 46 C-27.66 43.36 -28.32 40.72 -29 38 C-27.02 37.505 -27.02 37.505 -25 37 C-25.37253906 35.75863281 -25.74507813 34.51726562 -26.12890625 33.23828125 C-26.60736065 31.59652594 -27.08519266 29.95458916 -27.5625 28.3125 C-27.80935547 27.49587891 -28.05621094 26.67925781 -28.31054688 25.83789062 C-30.67683452 17.60587586 -30.67683452 17.60587586 -29 14 C-26.78515625 12.6015625 -26.78515625 12.6015625 -24.0625 11.625 C-23.16660156 11.28726563 -22.27070313 10.94953125 -21.34765625 10.6015625 C-19 10 -19 10 -17 11 C-17.99 16.28 -18.98 21.56 -20 27 C-12.74222799 20.90865563 -5.50881534 14.46609364 -1 6 C-0.83249586 3.33290931 -0.83249586 3.33290931 -1 1 C-0.67 0.67 -0.34 0.34 0 0 Z " fill="#04B2A9" transform="translate(336,211)"/>
<path d="M0 0 C4.04321968 1.79598374 6.80496342 4.43981915 10 7.44140625 C12.05542919 9.04319579 13.45557105 9.58539439 16 10 C16 10.66 16 11.32 16 12 C8.48503329 13.19607578 1.02353006 13.14568053 -6.5703125 13.1328125 C-7.9794008 13.13348738 -9.388489 13.13445894 -10.7975769 13.13571167 C-13.73762124 13.137179 -16.67763502 13.13506461 -19.61767578 13.13037109 C-23.37448104 13.12466383 -27.13121499 13.12796524 -30.88801765 13.13394356 C-33.79288261 13.1375663 -36.69773081 13.13640289 -39.60259628 13.13381577 C-40.98759851 13.13315178 -42.37260228 13.13395631 -43.75760269 13.13629532 C-45.69533507 13.1388512 -47.63307283 13.13426128 -49.57080078 13.12939453 C-50.6703006 13.12859894 -51.76980042 13.12780334 -52.90261841 13.12698364 C-56.01130092 12.9995367 -58.94573574 12.57826428 -62 12 C-62 11.34 -62 10.68 -62 10 C-59.03 10 -56.06 10 -53 10 C-53 10.66 -53 11.32 -53 12 C-52.01 11.67 -51.02 11.34 -50 11 C-50 10.34 -50 9.68 -50 9 C-41.45557764 8.11761905 -32.98728194 7.84257067 -24.39941406 7.86962891 C-22.37036741 7.87501229 -20.34154021 7.86963422 -18.3125 7.86328125 C-11.14570572 7.87032132 -4.11083222 8.07451665 3 9 C2.505 7.515 2.505 7.515 2 6 C1.34 6.66 0.68 7.32 0 8 C0 5.36 0 2.72 0 0 Z " fill="#459C98" transform="translate(387,316)"/>
<path d="M0 0 C3.77001757 0.40978452 5.80106814 0.86737876 9 3 C10.134375 3.28875 11.26875 3.5775 12.4375 3.875 C16.16042407 5.05066023 17.7483719 5.84772066 20 9 C20.3125 11.6875 20.3125 11.6875 20 14 C19 15 19 15 16.22436523 15.11352539 C15.01466064 15.10828857 13.80495605 15.10305176 12.55859375 15.09765625 C11.25341797 15.09443359 9.94824219 15.09121094 8.60351562 15.08789062 C7.2148431 15.07953401 5.82617123 15.07106905 4.4375 15.0625 C3.04492344 15.05748666 1.65234519 15.05292347 0.25976562 15.04882812 C-3.1601987 15.03699434 -6.58007844 15.0205088 -10 15 C-10.33 13.35 -10.66 11.7 -11 10 C-9.68 9.34 -8.36 8.68 -7 8 C-7 7.01 -7 6.02 -7 5 C-4.0625 2.875 -4.0625 2.875 -1 1 C-0.67 0.67 -0.34 0.34 0 0 Z " fill="#CDF3F3" transform="translate(621,156)"/>
<path d="M0 0 C3.04075149 -0.00218532 6.08113854 -0.02039903 9.12182617 -0.03930664 C20.33410531 -0.07046993 31.16231123 0.40657021 42.24487305 2.18530273 C37.71879527 6.71138051 27.8576708 5.30697145 21.76550293 5.32424927 C20.59338257 5.32222504 19.42126221 5.32020081 18.21362305 5.31811523 C16.98252808 5.31907196 15.75143311 5.32002869 14.48303223 5.3210144 C11.89111276 5.32169214 9.29919156 5.3198663 6.70727539 5.31567383 C2.75752929 5.31031989 -1.19210311 5.3156327 -5.1418457 5.32202148 C-7.6691897 5.32136063 -10.19653363 5.32007932 -12.72387695 5.31811523 C-14.4820575 5.32115158 -14.4820575 5.32115158 -16.27575684 5.32424927 C-33.66549894 5.27493075 -33.66549894 5.27493075 -36.75512695 2.18530273 C-25.13073023 -1.06081303 -11.95788177 -0.00095962 0 0 Z " fill="#459C98" transform="translate(457.755126953125,329.814697265625)"/>
<path d="M0 0 C0.495 0.99 0.495 0.99 1 2 C2.65 2 4.3 2 6 2 C6.495 2.99 6.495 2.99 7 4 C-4.34665853 7.31241096 -17.73429265 6.1589921 -29.45239258 6.13037109 C-32.0627216 6.12499954 -34.67287919 6.13035867 -37.28320312 6.13671875 C-61.21244092 6.14747181 -61.21244092 6.14747181 -71 4 C-71 3.34 -71 2.68 -71 2 C-62.59586097 1.08501996 -54.25020682 0.79605397 -45.80078125 0.68359375 C-44.48458298 0.66281265 -43.1683847 0.64203156 -41.81230164 0.62062073 C-38.35190474 0.56603143 -34.89145506 0.51635011 -31.43096924 0.46777344 C-27.88427156 0.41709027 -24.33764835 0.36165132 -20.79101562 0.30664062 C-13.86074188 0.19983428 -6.93040055 0.09822494 0 0 Z " fill="#449C98" transform="translate(210,335)"/>
<path d="M0 0 C0 0.66 0 1.32 0 2 C0.66 2 1.32 2 2 2 C2 1.34 2 0.68 2 0 C18.77944503 -0.2093204 35.34555915 -0.376175 52 2 C52 2.66 52 3.32 52 4 C44.42527127 5.02132313 36.98483108 5.14533425 29.34765625 5.1328125 C28.05234482 5.13376923 26.75703339 5.13472595 25.42247009 5.13571167 C22.69349969 5.13717732 19.96456224 5.13507115 17.2355957 5.13037109 C13.76506703 5.1246802 10.29461583 5.12795601 6.82409 5.13394356 C3.47777282 5.1384593 0.13147563 5.13528229 -3.21484375 5.1328125 C-5.06371437 5.13584885 -5.06371437 5.13584885 -6.94993591 5.13894653 C-13.69596361 5.12079404 -20.30432938 4.84176613 -27 4 C-27 3.34 -27 2.68 -27 2 C-23.81309767 1.66078548 -20.62539896 1.32970583 -17.4375 1 C-16.54224609 0.90460938 -15.64699219 0.80921875 -14.72460938 0.7109375 C-9.78509212 0.20432035 -4.96511986 -0.10897382 0 0 Z " fill="#459C98" transform="translate(75,333)"/>
<path d="M0 0 C2.97 0.33 5.94 0.66 9 1 C11 9.5 11 9.5 11 14 C10.01 14 9.02 14 8 14 C7.67 14.99 7.34 15.98 7 17 C4 16 4 16 3 15 C4.5 16.125 4.5 16.125 6 18 C6.1875 21.1875 6.1875 21.1875 6 24 C0.21408489 24.10477512 -5.29309366 23.99250545 -11 23 C-9.375 16.25 -9.375 16.25 -6 14 C-5.74984127 10.41642759 -5.74984127 10.41642759 -6 7 C-4.68 7 -3.36 7 -2 7 C-1.34 4.69 -0.68 2.38 0 0 Z " fill="#F4F7F6" transform="translate(121,179)"/>
<path d="M0 0 C2.64 0 5.28 0 8 0 C9.43023178 4.67209049 10.40380045 9.13103697 11 14 C8.525 13.505 8.525 13.505 6 13 C5.67 14.32 5.34 15.64 5 17 C4.34 15.68 3.68 14.36 3 13 C2.34 13 1.68 13 1 13 C1.825 13.70125 2.65 14.4025 3.5 15.125 C6 18 6 18 6 24 C0.39 23.67 -5.22 23.34 -11 23 C-11 17 -11 17 -8.4375 14.375 C-7.633125 13.59125 -6.82875 12.8075 -6 12 C-6.04497842 9.72476911 -6.04497842 9.72476911 -7 8 C-5.68 7.34 -4.36 6.68 -3 6 C-3 7.98 -3 9.96 -3 12 C-2.34 12 -1.68 12 -1 12 C-1.01160156 11.38511719 -1.02320313 10.77023438 -1.03515625 10.13671875 C-1.04417969 9.32847656 -1.05320312 8.52023438 -1.0625 7.6875 C-1.07410156 6.88699219 -1.08570313 6.08648437 -1.09765625 5.26171875 C-1 3 -1 3 0 0 Z " fill="#F2F7F7" transform="translate(333,185)"/>
<path d="M0 0 C2.64 0 5.28 0 8 0 C8.50757862 1.41396902 9.00574925 2.83131729 9.5 4.25 C9.7784375 5.03890625 10.056875 5.8278125 10.34375 6.640625 C11 9 11 9 11 13 C9.68 13 8.36 13 7 13 C7 13.99 7 14.98 7 16 C5.68 15.67 4.36 15.34 3 15 C3.66 15.37125 4.32 15.7425 5 16.125 C5.66 16.74375 6.32 17.3625 7 18 C7 19.98 7 21.96 7 24 C1.39 23.67 -4.22 23.34 -10 23 C-10 21.02 -10 19.04 -10 17 C-8.66666667 16 -7.33333333 15 -6 14 C-5.66602213 10.87413125 -5.66602213 10.87413125 -6 8 C-5.01 7.67 -4.02 7.34 -3 7 C-2.67 8.65 -2.34 10.3 -2 12 C-1.34 12 -0.68 12 0 12 C-0.33 11.34 -0.66 10.68 -1 10 C-1.13357453 6.32670036 -1.1671568 3.50147041 0 0 Z " fill="#EDF2F2" transform="translate(457,183)"/>
<path d="M0 0 C2.64 0 5.28 0 8 0 C9.45184478 4.53701494 10.23509196 8.18061476 10 13 C8.68 13 7.36 13 6 13 C6 13.99 6 14.98 6 16 C4.68 15.67 3.36 15.34 2 15 C3.32 15.99 4.64 16.98 6 18 C5.67 19.98 5.34 21.96 5 24 C-0.73842251 24.20413361 -5.60539047 24.27141454 -11 22 C-11.3125 19.8125 -11.3125 19.8125 -11 17 C-9.33333333 15.33333333 -7.66666667 13.66666667 -6 12 C-6.04497842 9.72476911 -6.04497842 9.72476911 -7 8 C-5.68 7.67 -4.36 7.34 -3 7 C-3 8.65 -3 10.3 -3 12 C-2.34 12 -1.68 12 -1 12 C-1.01160156 11.30132812 -1.02320313 10.60265625 -1.03515625 9.8828125 C-1.04417969 8.97273437 -1.05320312 8.06265625 -1.0625 7.125 C-1.07410156 6.22007812 -1.08570313 5.31515625 -1.09765625 4.3828125 C-1 2 -1 2 0 0 Z " fill="#EDF1F1" transform="translate(259,165)"/>
<path d="M0 0 C0 -0.66 0 -1.32 0 -2 C4.94384403 -2.02493791 9.88765048 -2.04297138 14.83154297 -2.05493164 C16.50928384 -2.05992396 18.18702045 -2.06672015 19.86474609 -2.07543945 C41.0381393 -2.18263054 41.0381393 -2.18263054 46 -1 C46.99 -0.01 46.99 -0.01 48 1 C37.02646002 4.65784666 23.51464283 3.15408669 12.08007812 3.13037109 C9.00646025 3.12501127 5.93298845 3.13034399 2.859375 3.13671875 C-25.27529859 3.14980094 -25.27529859 3.14980094 -30 0 C-21.89036396 -4.05481802 -8.37239818 -2.18803495 0 0 Z " fill="#459C98" transform="translate(299,337)"/>
<path d="M0 0 C1.3833605 2.76672101 0.67938379 4.22810123 0.00390625 7.2265625 C-0.22490234 8.2578125 -0.45371094 9.2890625 -0.68945312 10.3515625 C-0.93630859 11.43179688 -1.18316406 12.51203125 -1.4375 13.625 C-1.68048828 14.71296875 -1.92347656 15.8009375 -2.17382812 16.921875 C-2.77646436 19.61601348 -3.38543698 22.30856155 -4 25 C-2.89326166 24.23286356 -1.78972306 23.46110997 -0.6875 22.6875 C-0.07261719 22.25824219 0.54226562 21.82898438 1.17578125 21.38671875 C2.94645331 20.04070466 4.46738009 18.60807197 6 17 C6.79296875 18.64453125 6.79296875 18.64453125 7 21 C5.50246365 23.12175992 4.09192858 24.83443989 2.3125 26.6875 C1.42175781 27.66074219 0.53101562 28.63398438 -0.38671875 29.63671875 C-2.78216841 31.8030073 -3.85943372 32.68373689 -7 33 C-7.0928125 31.824375 -7.0928125 31.824375 -7.1875 30.625 C-8.12411942 26.44623645 -9.84428376 23.26959472 -11.94140625 19.5625 C-13.2854584 16.30900107 -13.6378387 14.48804098 -13 11 C-11.10948525 8.68072807 -8.8686138 6.93716191 -6.5 5.125 C-5.87996094 4.62742188 -5.25992188 4.12984375 -4.62109375 3.6171875 C-3.09360061 2.39519299 -1.54842988 1.19535383 0 0 Z " fill="#3F5D5D" transform="translate(108,207)"/>
<path d="M0 0 C3.875 1.875 3.875 1.875 5 3 C4.5281625 12.27947074 1.55585229 20.85371936 -1.1171875 29.6953125 C-3.03582023 36.17945085 -4.53428364 42.24711273 -5 49 C-8.89746094 47.22363281 -8.89746094 47.22363281 -9.8203125 45.2109375 C-10.04583517 42.43602809 -9.56347645 40.32817594 -8.875 37.625 C-8.59785156 36.49707031 -8.32070313 35.36914062 -8.03515625 34.20703125 C-7.87418457 33.55943848 -7.71321289 32.9118457 -7.54736328 32.24462891 C-6.41781861 27.61258888 -5.37155897 22.9610528 -4.3125 18.3125 C-4.0861084 17.33168457 -3.8597168 16.35086914 -3.62646484 15.34033203 C-3.41586426 14.41978027 -3.20526367 13.49922852 -2.98828125 12.55078125 C-2.79790283 11.72231689 -2.60752441 10.89385254 -2.41137695 10.0402832 C-1.93411673 8.02013285 -1.93411673 8.02013285 -2 6 C-2.66 5.34 -3.32 4.68 -4 4 C-2.68 2.68 -1.36 1.36 0 0 Z " fill="#ECF8F8" transform="translate(399,271)"/>
<path d="M0 0 C-0.55316586 3.96435532 -1.45620868 7.3162378 -3 11 C-3.85118408 11.05534912 -4.70236816 11.11069824 -5.5793457 11.16772461 C-8.79068289 11.37722125 -12.00193387 11.58798581 -15.21313477 11.79956055 C-16.59298519 11.89022405 -17.97286725 11.98040767 -19.3527832 12.07006836 C-22.66768077 12.28560293 -25.98168841 12.5083849 -29.29541016 12.74169922 C-31.62741191 12.90429694 -33.960411 13.05366458 -36.29443359 13.18408203 C-37.747771 13.28052002 -37.747771 13.28052002 -39.23046875 13.37890625 C-40.06344482 13.42732666 -40.8964209 13.47574707 -41.75463867 13.52563477 C-44.44925616 14.0949119 -45.92981997 15.2226327 -48 17 C-47.34 14.69 -46.68 12.38 -46 10 C-41.89395864 9.27822742 -37.78632007 8.56658485 -33.67700195 7.86376953 C-32.28298148 7.62394844 -30.88941084 7.38149559 -29.49633789 7.13623047 C-21.95593125 5.81050415 -14.67957505 4.65981949 -7 5 C-7 3.68 -7 2.36 -7 1 C-4.50935112 0.31292445 -2.62113708 0 0 0 Z " fill="#F2F9F9" transform="translate(177,296)"/>
<path d="M0 0 C2.3125 0.4375 2.3125 0.4375 5 2 C6.25415571 5.0308763 7.1360358 7.85030528 8 11 C8.78520462 13.52308758 9.57702096 16.04347922 10.375 18.5625 C11.72527311 22.86054524 13.05324238 27.16331268 14.328125 31.484375 C14.54549316 32.20939209 14.76286133 32.93440918 14.98681641 33.68139648 C15.40319227 35.07181152 15.81208438 36.46449608 16.21240234 37.85961914 C17.24698275 41.28617396 18.12419025 43.7641826 21 46 C18.69 46 16.38 46 14 46 C13.55269531 44.77925781 13.10539062 43.55851562 12.64453125 42.30078125 C8.35517135 26.63884057 8.35517135 26.63884057 1 13 C0.95907063 10.66702567 0.95758277 8.33294775 1 6 C-0.32 5.67 -1.64 5.34 -3 5 C-1.125 1.125 -1.125 1.125 0 0 Z " fill="#EFF9F9" transform="translate(195,284)"/>
<path d="M0 0 C3.66699158 0.76213454 6.20900549 2.37684283 9.29296875 4.4765625 C8.96296875 5.4665625 8.63296875 6.4565625 8.29296875 7.4765625 C5.65296875 7.4765625 3.01296875 7.4765625 0.29296875 7.4765625 C-0.03703125 11.4365625 -0.36703125 15.3965625 -0.70703125 19.4765625 C-1.36703125 19.4765625 -2.02703125 19.4765625 -2.70703125 19.4765625 C-2.70703125 17.8265625 -2.70703125 16.1765625 -2.70703125 14.4765625 C-3.69703125 14.8065625 -4.68703125 15.1365625 -5.70703125 15.4765625 C-5.48015625 16.2396875 -5.25328125 17.0028125 -5.01953125 17.7890625 C-4.70703125 20.4765625 -4.70703125 20.4765625 -5.95703125 22.2890625 C-7.70703125 23.4765625 -7.70703125 23.4765625 -10.70703125 23.4765625 C-12.4706872 17.549522 -13.05560364 10.15388918 -10.90625 4.29296875 C-8.02886845 0.16971065 -4.65633031 -0.29638283 0 0 Z " fill="#1B3434" transform="translate(258.70703125,157.5234375)"/>
<path d="M0 0 C1.98 0 3.96 0 6 0 C5.44161241 3.35032554 4.82487243 6.11772486 3 9 C0.98828125 10.24609375 0.98828125 10.24609375 -1.6875 11.4375 C-8.29280164 14.578652 -14.67891814 18.05564809 -21.0625 21.625 C-22.08625732 22.18759521 -23.11001465 22.75019043 -24.16479492 23.32983398 C-25.13263916 23.87325439 -26.1004834 24.4166748 -27.09765625 24.9765625 C-27.96914307 25.46205566 -28.84062988 25.94754883 -29.73852539 26.44775391 C-32.09003042 28.06179568 -33.4396139 29.63245161 -35 32 C-34.69979536 27.69706689 -33.89580263 25.44561362 -30.76782227 22.47875977 C-26.75521039 19.12226341 -22.38842092 16.24479748 -18.0625 13.3125 C-16.59780273 12.29833008 -16.59780273 12.29833008 -15.10351562 11.26367188 C-14.15283203 10.61591797 -13.20214844 9.96816406 -12.22265625 9.30078125 C-11.36422119 8.71466064 -10.50578613 8.12854004 -9.62133789 7.5246582 C-7 6 -7 6 -3.72827148 4.92651367 C-2.82794189 4.62076416 -1.9276123 4.31501465 -1 4 C-0.03122943 1.96756452 -0.03122943 1.96756452 0 0 Z " fill="#EDF8F8" transform="translate(374,283)"/>
<path d="M0 0 C3.71060016 0.82759272 6.88968109 2.54215708 10.13671875 4.4765625 C10.13671875 5.4665625 10.13671875 6.4565625 10.13671875 7.4765625 C7.16671875 7.4765625 4.19671875 7.4765625 1.13671875 7.4765625 C0.80671875 11.4365625 0.47671875 15.3965625 0.13671875 19.4765625 C-0.52328125 19.4765625 -1.18328125 19.4765625 -1.86328125 19.4765625 C-1.86328125 17.4965625 -1.86328125 15.5165625 -1.86328125 13.4765625 C-2.85328125 14.1365625 -3.84328125 14.7965625 -4.86328125 15.4765625 C-4.63640625 16.2396875 -4.40953125 17.0028125 -4.17578125 17.7890625 C-3.86328125 20.4765625 -3.86328125 20.4765625 -5.11328125 22.2890625 C-6.86328125 23.4765625 -6.86328125 23.4765625 -9.86328125 23.4765625 C-10.251528 20.80736608 -10.58754497 18.15832015 -10.86328125 15.4765625 C-10.94320313 14.70957031 -11.023125 13.94257813 -11.10546875 13.15234375 C-11.33622707 9.15479514 -11.20865985 6.25898165 -8.86328125 2.9140625 C-5.73405676 0.3715676 -4.02984497 -0.29168402 0 0 Z " fill="#193333" transform="translate(331.86328125,177.5234375)"/>
<path d="M0 0 C2.45098556 0.39532025 4.63904279 1.21301426 7 2 C8.670625 1.87625 8.670625 1.87625 10.375 1.75 C14 2 14 2 16.9375 4.5 C17.9584375 5.7375 17.9584375 5.7375 19 7 C18.43410156 7.27972656 17.86820312 7.55945313 17.28515625 7.84765625 C14.99563649 9.09904578 12.98639601 10.30337423 11 12 C9.86521513 15.66945626 9.86521513 15.66945626 10 19 C9.34 19 8.68 19 8 19 C8 17.02 8 15.04 8 13 C7.01 13 6.02 13 5 13 C5.33 15.31 5.66 17.62 6 20 C4.68 20.33 3.36 20.66 2 21 C-0.03823182 19.04669451 -0.9558264 17.60160231 -1.1640625 14.765625 C-1.13836318 13.15170784 -1.08697026 11.53796087 -1.0078125 9.92578125 C-1.00523437 9.29027344 -1.00265625 8.65476563 -1 8 C-1.33 7.67 -1.66 7.34 -2 7 C-2.1875 4.5625 -2.1875 4.5625 -2 2 C-1.34 1.34 -0.68 0.68 0 0 Z " fill="#1A3232" transform="translate(382,175)"/>
<path d="M0 0 C0 8.58 0 17.16 0 26 C-1.65 26 -3.3 26 -5 26 C-7 24 -7 24 -7.125 21.375 C-7.08375 20.59125 -7.0425 19.8075 -7 19 C-8.32 19 -9.64 19 -11 19 C-12.55136786 16.53606281 -13.03039129 15.31910854 -12.75 12.375 C-12 10 -12 10 -10 8 C-9.01 8 -8.02 8 -7 8 C-7 5.36 -7 2.72 -7 0 C-5 -1 -5 -1 0 0 Z " fill="#D7DCD7" transform="translate(709,227)"/>
<path d="M0 0 C0.66 0.66 1.32 1.32 2 2 C3.670625 2.433125 3.670625 2.433125 5.375 2.875 C9.12478288 4.03872572 10.79119033 4.77881923 13 8 C12.875 10.6875 12.875 10.6875 12 13 C9.703463 14.1482685 8.41686833 14.11561175 5.8671875 14.09765625 C5.06152344 14.09443359 4.25585938 14.09121094 3.42578125 14.08789062 C2.58402344 14.07951172 1.74226562 14.07113281 0.875 14.0625 C0.02550781 14.05798828 -0.82398438 14.05347656 -1.69921875 14.04882812 C-3.79950909 14.03702874 -5.8997633 14.01909306 -8 14 C-8 9.71 -8 5.42 -8 1 C-5.23749964 -0.38125018 -3.05268901 -0.19079306 0 0 Z " fill="#CCF1F1" transform="translate(587,191)"/>
<path d="M0 0 C4.6243449 0.33031035 8.32082964 2.28421766 12.25 4.625 C11.92 5.615 11.59 6.605 11.25 7.625 C8.61 7.625 5.97 7.625 3.25 7.625 C3.25 11.585 3.25 15.545 3.25 19.625 C2.59 19.625 1.93 19.625 1.25 19.625 C0.92 17.975 0.59 16.325 0.25 14.625 C-0.74 15.12 -0.74 15.12 -1.75 15.625 C-1.688125 16.553125 -1.62625 17.48125 -1.5625 18.4375 C-1.75 21.625 -1.75 21.625 -3.125 23.5 C-4.75 24.625 -4.75 24.625 -6.75 24.625 C-8.27300329 17.97579053 -9.63888957 9.05283409 -6.25 2.8125 C-3.75 0.625 -3.75 0.625 0 0 Z " fill="#1C3333" transform="translate(453.75,175.375)"/>
<path d="M0 0 C2.1875 1.5 2.1875 1.5 4 3 C4.66 3 5.32 3 6 3 C6 6.63 6 10.26 6 14 C-0.6 14 -7.2 14 -14 14 C-14.33 12.35 -14.66 10.7 -15 9 C-11.35544632 3.64036224 -7.00919098 -1.07833707 0 0 Z " fill="#CCF3F3" transform="translate(656,221)"/>
<path d="M0 0 C4.44772639 0.75385193 7.81737835 2.37329286 11.6875 4.625 C11.6875 5.615 11.6875 6.605 11.6875 7.625 C8.7175 7.625 5.7475 7.625 2.6875 7.625 C2.3575 11.585 2.0275 15.545 1.6875 19.625 C1.3575 19.625 1.0275 19.625 0.6875 19.625 C0.6875 17.975 0.6875 16.325 0.6875 14.625 C-0.6325 14.625 -1.9525 14.625 -3.3125 14.625 C-3.10625 15.73875 -2.9 16.8525 -2.6875 18 C-2.56375 19.19625 -2.44 20.3925 -2.3125 21.625 C-2.9725 22.285 -3.6325 22.945 -4.3125 23.625 C-5.3025 23.625 -6.2925 23.625 -7.3125 23.625 C-9.06494029 17.73565148 -9.74574223 10.21774621 -7.44140625 4.44140625 C-5.30600751 1.52186109 -3.50926969 0.66212636 0 0 Z " fill="#182E2E" transform="translate(118.3125,171.375)"/>
<path d="M0 0 C1 1 1 1 1.0625 4.0625 C1.041875 5.031875 1.02125 6.00125 1 7 C0.01 7 -0.98 7 -2 7 C-2 5.68 -2 4.36 -2 3 C-6.455 3.495 -6.455 3.495 -11 4 C-11 5.98 -11 7.96 -11 10 C-9.35 10 -7.7 10 -6 10 C-6 9.01 -6 8.02 -6 7 C-5.34 7 -4.68 7 -4 7 C-4 9.31 -4 11.62 -4 14 C-4.66 14 -5.32 14 -6 14 C-6 13.34 -6 12.68 -6 12 C-7.32 12 -8.64 12 -10 12 C-10 14.64 -10 17.28 -10 20 C-6.7 20 -3.4 20 0 20 C0 18.02 0 16.04 0 14 C0.99 14.33 1.98 14.66 3 15 C3.04254356 16.99954746 3.04080783 19.00041636 3 21 C0.85531351 23.14468649 -3.58444894 22.7395788 -6.5625 23.0625 C-7.36880859 23.15337891 -8.17511719 23.24425781 -9.00585938 23.33789062 C-11.00347377 23.56247449 -13.0016856 23.78173236 -15 24 C-15.33 23.01 -15.66 22.02 -16 21 C-15.01 21 -14.02 21 -13 21 C-13.165 20.21625 -13.33 19.4325 -13.5 18.625 C-14.12960847 14.06033858 -14.08180527 9.59927399 -14 5 C-15.32 5 -16.64 5 -18 5 C-18 4.01 -18 3.02 -18 2 C-15.93827387 1.66191314 -13.8755797 1.32972639 -11.8125 1 C-10.66394531 0.814375 -9.51539063 0.62875 -8.33203125 0.4375 C-5.48674706 0.06391052 -2.86111427 -0.1673778 0 0 Z " fill="#E4F2F1" transform="translate(590,104)"/>
<path d="M0 0 C-0.66 1.65 -1.32 3.3 -2 5 C-0.68 4.67 0.64 4.34 2 4 C2.66 5.65 3.32 7.3 4 9 C-0.875 11 -0.875 11 -2 11 C-2 11.66 -2 12.32 -2 13 C-3.98 13.66 -5.96 14.32 -8 15 C-8 19.62 -8 24.24 -8 29 C-11.14333222 27.42833389 -11.82114823 24.70110982 -13.1796875 21.56640625 C-14.45175615 17.5866486 -14.26352486 14.15051658 -14 10 C-13.34 10 -12.68 10 -12 10 C-12.33 7.69 -12.66 5.38 -13 3 C-12.01 3 -11.02 3 -10 3 C-10 4.98 -10 6.96 -10 9 C-9.34 9 -8.68 9 -8 9 C-8.061875 7.88625 -8.12375 6.7725 -8.1875 5.625 C-8.125625 4.42875 -8.06375 3.2325 -8 2 C-4.77208445 -0.1519437 -3.71599191 -0.20086443 0 0 Z " fill="#EFF6F6" transform="translate(400,185)"/>
<path d="M0 0 C-1.18421311 2.36842622 -2.38814949 4.69004353 -3.6875 7 C-5.18666104 9.76133075 -5.18666104 9.76133075 -4.8046875 11.984375 C-3.79924432 14.50286375 -2.54392451 15.56486039 -0.4375 17.25 C0.20316406 17.77078125 0.84382812 18.2915625 1.50390625 18.828125 C1.99761719 19.21484375 2.49132812 19.6015625 3 20 C2.67 20.66 2.34 21.32 2 22 C-0.31 22 -2.62 22 -5 22 C-5 20.68 -5 19.36 -5 18 C-5.93283296 15.79932579 -5.93283296 15.79932579 -7 14 C-7.66 14 -8.32 14 -9 14 C-9.309375 14.78375 -9.61875 15.5675 -9.9375 16.375 C-11 19 -11 19 -12 21 C-11.01 21 -10.02 21 -9 21 C-9.33 21.99 -9.66 22.98 -10 24 C-12.31 24 -14.62 24 -17 24 C-15.54331217 21.03216871 -13.98767914 18.13584687 -12.375 15.25 C-11.92898438 14.45078125 -11.48296875 13.6515625 -11.0234375 12.828125 C-10.68570313 12.22484375 -10.34796875 11.6215625 -10 11 C-10.60328125 10.73445313 -11.2065625 10.46890625 -11.828125 10.1953125 C-15.08886614 8.40073194 -16.71795549 5.91594577 -19 3 C-18 2 -18 2 -14.4375 1.9375 C-13.303125 1.958125 -12.16875 1.97875 -11 2 C-11.33 2.99 -11.66 3.98 -12 5 C-11.12516085 7.16715557 -11.12516085 7.16715557 -10 9 C-7.7522025 6.94766315 -6.9977758 5.99332739 -6 3 C-6.66 3 -7.32 3 -8 3 C-8 2.34 -8 1.68 -8 1 C-5.07175348 0.02391783 -3.04386724 -0.08226668 0 0 Z " fill="#EAF6F5" transform="translate(614,101)"/>
<path d="M0 0 C0.33 2.97 0.66 5.94 1 9 C0.01 8.67 -0.98 8.34 -2 8 C-2 6.35 -2 4.7 -2 3 C-3.65 3 -5.3 3 -7 3 C-6.67 8.28 -6.34 13.56 -6 19 C-4.35 19 -2.7 19 -1 19 C-0.67 19.66 -0.34 20.32 0 21 C-4.53701494 22.45184478 -8.18061476 23.23509196 -13 23 C-13 22.01 -13 21.02 -13 20 C-11.68 20 -10.36 20 -9 20 C-9.33 14.72 -9.66 9.44 -10 4 C-11.65 4 -13.3 4 -15 4 C-15 6.31 -15 8.62 -15 11 C-15.99 11 -16.98 11 -18 11 C-18 7.7 -18 4.4 -18 1 C-12.03325384 -0.32594359 -6.07416385 -0.0884587 0 0 Z " fill="#DCEEEE" transform="translate(659,96)"/>
<path d="M0 0 C0.99 0 1.98 0 3 0 C3 0.66 3 1.32 3 2 C4.32 2 5.64 2 7 2 C7.66 4.97 8.32 7.94 9 11 C8.01 11 7.02 11 6 11 C6 11.66 6 12.32 6 13 C5.01 13 4.02 13 3 13 C2.67 13.99 2.34 14.98 2 16 C0.35 16.33 -1.3 16.66 -3 17 C-2.67 21.62 -2.34 26.24 -2 31 C-5.34191391 27.65808609 -6.66555333 25.52229149 -8 21 C-7.45406213 18.10539194 -6.28678555 15.63608699 -5 13 C-3.14693675 8.70089327 -1.41560416 4.46459775 0 0 Z " fill="#E4ECEB" transform="translate(186,195)"/>
<path d="M0 0 C-2.88971101 1.92647401 -3.97266786 2.33260599 -7.25390625 2.78125 C-8.09783936 2.89976318 -8.94177246 3.01827637 -9.8112793 3.14038086 C-10.71918213 3.25905518 -11.62708496 3.37772949 -12.5625 3.5 C-13.51358643 3.62963135 -14.46467285 3.7592627 -15.44458008 3.89282227 C-21.70647185 4.7334254 -27.97512177 5.49351672 -34.25830078 6.15576172 C-39.61120328 6.7219675 -44.95436402 7.3552357 -50.296875 8.01171875 C-52.58057606 8.28973815 -54.86433393 8.56728713 -57.14810181 8.84475708 C-58.65519642 9.02923901 -60.16202274 9.21592831 -61.66854858 9.40499878 C-70.13255406 10.46587491 -78.44992966 11.30899732 -87 11 C-87 10.67 -87 10.34 -87 10 C-73.66470549 8.25070664 -60.3283581 6.50967814 -46.99072266 4.77832031 C-43.26879734 4.29515338 -39.54709307 3.81036567 -35.82568359 3.32324219 C-32.11468388 2.83775713 -28.40302355 2.35773978 -24.69067383 1.88269043 C-22.7392523 1.63165747 -20.78855857 1.37498716 -18.83789062 1.11816406 C-12.49795892 0.31312085 -6.39087795 -0.17809521 0 0 Z " fill="#BD7917" transform="translate(662,130)"/>
<path d="M0 0 C2.97 0.33 5.94 0.66 9 1 C11 9.5 11 9.5 11 14 C10.01 14 9.02 14 8 14 C7.67 14.99 7.34 15.98 7 17 C3.95139986 15.98379995 3.13333078 15.22608429 1 13 C0.34 12.67 -0.32 12.34 -1 12 C-1.02712066 10.56260487 -1.04645067 9.12506137 -1.0625 7.6875 C-1.07410156 6.88699219 -1.08570312 6.08648437 -1.09765625 5.26171875 C-1 3 -1 3 0 0 Z " fill="#DDE7E6" transform="translate(121,179)"/>
<path d="M0 0 C2.64 0 5.28 0 8 0 C9.43023178 4.67209049 10.40380045 9.13103697 11 14 C9.35 13.67 7.7 13.34 6 13 C5.67 14.32 5.34 15.64 5 17 C4.34 15.68 3.68 14.36 3 13 C2.01 13.33 1.02 13.66 0 14 C-1.17635297 11.64729407 -1.13359359 10.179248 -1.125 7.5625 C-1.12757813 6.78003906 -1.13015625 5.99757812 -1.1328125 5.19140625 C-1 3 -1 3 0 0 Z " fill="#E3EBEA" transform="translate(333,185)"/>
<path d="M0 0 C0.33 0 0.66 0 1 0 C0.63905656 7.85481679 -1.78433046 14.63738548 -4.61035156 21.90429688 C-5.37956547 23.88676644 -6.12824416 25.8761644 -6.875 27.8671875 C-7.36078762 29.13847679 -7.84772585 30.40932714 -8.3359375 31.6796875 C-8.77470215 32.82163574 -9.2134668 33.96358398 -9.66552734 35.14013672 C-10.87804705 37.73864674 -11.73401784 39.2832549 -14 41 C-14.66 41 -15.32 41 -16 41 C-16.28552723 36.28836415 -15.55201211 33.35995051 -13.4453125 29.15625 C-12.91292969 28.07472656 -12.38054687 26.99320313 -11.83203125 25.87890625 C-11.26871094 24.76386719 -10.70539063 23.64882812 -10.125 22.5 C-9.02026 20.2828304 -7.91859192 18.06412695 -6.8203125 15.84375 C-6.32805176 14.86599609 -5.83579102 13.88824219 -5.32861328 12.88085938 C-3.98525762 9.96803379 -2.98018953 7.05138193 -2 4 C-1.36184656 2.65278717 -0.70674629 1.31252882 0 0 Z " fill="#F0AA35" transform="translate(463,208)"/>
<path d="M0 0 C1.0828125 0.2475 1.0828125 0.2475 2.1875 0.5 C5.34436897 1.14586111 5.34436897 1.14586111 10 1 C8.68 5.95 7.36 10.9 6 16 C2.7 15.67 -0.6 15.34 -4 15 C-4 11 -4 11 -2.5625 8.625 C-0.82358835 5.70362843 -0.3895931 3.3505007 0 0 Z " fill="#183434" transform="translate(380,235)"/>
<path d="M0 0 C0.99 0 1.98 0 3 0 C4.11045314 7.21794542 1.58241556 11.07420057 -2.578125 16.89453125 C-8.00952832 23.85899196 -13.34947179 30.42239864 -21 35 C-21.66 35 -22.32 35 -23 35 C-21.73195911 29.92783643 -20.11727764 27.83045497 -15.9375 24.75 C-5.56392643 17.09557893 -5.56392643 17.09557893 0.0625 6.0625 C0.041875 5.051875 0.02125 4.04125 0 3 C0 2.01 0 1.02 0 0 Z " fill="#3488E5" transform="translate(261,189)"/>
<path d="M0 0 C0.66 0 1.32 0 2 0 C2.48220564 5.24102191 1.0680722 8.34134457 -1.8125 12.5625 C-2.40949707 13.4601709 -2.40949707 13.4601709 -3.01855469 14.37597656 C-6.05183369 18.83585556 -9.31491802 23.09322758 -12.75 27.25 C-13.19706299 27.79857666 -13.64412598 28.34715332 -14.10473633 28.91235352 C-16.78934824 32.0527772 -19.02222573 33.82669967 -23 35 C-22.77283367 31.01585214 -22.30895635 29.33416719 -19.55859375 26.359375 C-18.52798515 25.47804536 -17.48703884 24.60869915 -16.4375 23.75 C-6.29831241 15.41299407 -6.29831241 15.41299407 -1.0625 3.9375 C-1.041875 2.968125 -1.02125 1.99875 -1 1 C-0.67 0.67 -0.34 0.34 0 0 Z " fill="#E09A56" transform="translate(336,211)"/>
<path d="M0 0 C0 0.66 0 1.32 0 2 C-1.98 2 -3.96 2 -6 2 C-5.67 7.61 -5.34 13.22 -5 19 C-2.69 19 -0.38 19 2 19 C2 19.66 2 20.32 2 21 C0.2508503 21.33776684 -1.49936145 21.67003671 -3.25 22 C-4.22453125 22.185625 -5.1990625 22.37125 -6.203125 22.5625 C-9 23 -9 23 -13 23 C-13 22.01 -13 21.02 -13 20 C-11.02 20 -9.04 20 -7 20 C-7.66 14.39 -8.32 8.78 -9 3 C-10.98 3.33 -12.96 3.66 -15 4 C-15 3.01 -15 2.02 -15 1 C-9.94997778 -0.03590199 -5.12583611 -0.10251672 0 0 Z " fill="#F0F7F7" transform="translate(635,99)"/>
<path d="M0 0 C2.0620035 0.00541015 4.12379363 -0.0000083 6.18579102 -0.00634766 C7.52107795 -0.00568751 8.85636475 -0.00440766 10.19165039 -0.00244141 C11.37734619 -0.00131348 12.56304199 -0.00018555 13.78466797 0.00097656 C17.32877713 0.1339026 20.73507295 0.56800885 24.23461914 1.13037109 C24.23461914 1.46037109 24.23461914 1.79037109 24.23461914 2.13037109 C9.05461914 2.13037109 -6.12538086 2.13037109 -21.76538086 2.13037109 C-21.76538086 2.79037109 -21.76538086 3.45037109 -21.76538086 4.13037109 C-23.08538086 3.80037109 -24.40538086 3.47037109 -25.76538086 3.13037109 C-25.76538086 2.47037109 -25.76538086 1.81037109 -25.76538086 1.13037109 C-17.17149372 0.24005453 -8.63422362 -0.02695927 0 0 Z " fill="#439D99" transform="translate(362.765380859375,323.86962890625)"/>
<path d="M0 0 C0 4.95 0 9.9 0 15 C-5.46875 10.5078125 -5.46875 10.5078125 -7 9 C-7 8.34 -7 7.68 -7 7 C-7.99 6.67 -8.98 6.34 -10 6 C-10 5.34 -10 4.68 -10 4 C-8.71086513 3.32845067 -7.41859796 2.66291141 -6.125 2 C-5.40570313 1.62875 -4.68640625 1.2575 -3.9453125 0.875 C-2 0 -2 0 0 0 Z " fill="#01AEA6" transform="translate(380,213)"/>
<path d="M0 0 C1.32 0 2.64 0 4 0 C4 7.92 4 15.84 4 24 C3.67 24 3.34 24 3 24 C2.83147753 22.39602723 2.66525114 20.7918131 2.5 19.1875 C2.4071875 18.29417969 2.314375 17.40085938 2.21875 16.48046875 C2 14 2 14 2 11 C1.01 10.67 0.02 10.34 -1 10 C-1.02689216 8.52093108 -1.04634621 7.04172517 -1.0625 5.5625 C-1.07410156 4.73878906 -1.08570313 3.91507813 -1.09765625 3.06640625 C-1 1 -1 1 0 0 Z " fill="#DDEDEB" transform="translate(704,226)"/>
<path d="M0 0 C0.66 1.32 1.32 2.64 2 4 C0.42687016 5.8223088 -1.15736799 7.63236793 -2.75 9.4375 C-3.41515625 10.2119043 -3.41515625 10.2119043 -4.09375 11.00195312 C-6.52915356 13.74178213 -8.24061317 15.65743905 -12 16 C-10.90424427 10.38425189 -8.15393035 8.03485239 -3.875 4.61328125 C-1.77315825 2.95107958 -1.77315825 2.95107958 0 0 Z " fill="#E35A7D" transform="translate(113,224)"/>
<path d="M0 0 C2.5625 0.1875 2.5625 0.1875 4.5625 2.1875 C4.10795455 7.64204545 4.10795455 7.64204545 1.5625 10.1875 C-1.4375 10.1875 -1.4375 10.1875 -3.1875 8.5 C-4.4375 6.1875 -4.4375 6.1875 -4.1875 3.5 C-3.13046375 0.2408049 -3.13046375 0.2408049 0 0 Z " fill="#E7F6F6" transform="translate(478.4375,211.8125)"/>
<path d="M0 0 C1.9375 0.625 1.9375 0.625 4 2 C4.875 4.9375 4.875 4.9375 5 8 C4.01 9.485 4.01 9.485 3 11 C1.68 11 0.36 11 -1 11 C-2.55136786 8.53606281 -3.03039129 7.31910854 -2.75 4.375 C-2 2 -2 2 0 0 Z " fill="#D8DFDC" transform="translate(699,235)"/>
<path d="M0 0 C6.875 0.875 6.875 0.875 8 2 C8.1875 4.4375 8.1875 4.4375 8 7 C6 9 6 9 3.375 9.125 C2.59125 9.08375 1.8075 9.0425 1 9 C-0.4783226 6.04335481 -0.06032783 3.25770263 0 0 Z " fill="#F2FAFA" transform="translate(422,249)"/>
<path d="M0 0 C2.4375 0.6875 2.4375 0.6875 5 2 C5.9375 4.4375 5.9375 4.4375 6 7 C5.01 8.485 5.01 8.485 4 10 C1.4375 10.25 1.4375 10.25 -1 10 C-2 9 -2 9 -2.1875 6.125 C-2 3 -2 3 0 0 Z " fill="#F3F9F8" transform="translate(214,226)"/>
<path d="M0 0 C0.86625 0.3403125 0.86625 0.3403125 1.75 0.6875 C2.08 2.3375 2.41 3.9875 2.75 5.6875 C0.4375 7.75 0.4375 7.75 -2.25 9.6875 C-3.24 9.3575 -4.23 9.0275 -5.25 8.6875 C-5.58 6.7075 -5.91 4.7275 -6.25 2.6875 C-2.80384615 -0.38942308 -2.80384615 -0.38942308 0 0 Z " fill="#F2FAFA" transform="translate(149.25,213.3125)"/>
<path d="M0 0 C0.12375 0.61875 0.2475 1.2375 0.375 1.875 C0.87197356 4.19120832 0.87197356 4.19120832 3 6 C1.68 6 0.36 6 -1 6 C-1 7.98 -1 9.96 -1 12 C-1.66 11.67 -2.32 11.34 -3 11 C-2.67 8.69 -2.34 6.38 -2 4 C-2.66 4 -3.32 4 -4 4 C-4 4.99 -4 5.98 -4 7 C-5.65 7 -7.3 7 -9 7 C-9 5.02 -9 3.04 -9 1 C-5.92677456 0.08941469 -3.19902639 -0.08886184 0 0 Z " fill="#238D93" transform="translate(588,107)"/>
<path d="M0 0 C2.4375 0.1875 2.4375 0.1875 3.4375 1.1875 C3.5625 4.1875 3.5625 4.1875 3.4375 7.1875 C2.4375 8.1875 2.4375 8.1875 -0.5 8.3125 C-3.5625 8.1875 -3.5625 8.1875 -5.5625 7.1875 C-4.47938312 0.32775974 -4.47938312 0.32775974 0 0 Z " fill="#EEF9F9" transform="translate(366.5625,233.8125)"/>
<path d="M0 0 C1.2375 0.1546875 1.2375 0.1546875 2.5 0.3125 C4.5 3.3125 4.5 3.3125 4.1875 5.4375 C3.5 7.3125 3.5 7.3125 2.5 8.3125 C-0.5 8.4375 -0.5 8.4375 -3.5 8.3125 C-4.5 7.3125 -4.5 7.3125 -4.6875 4.875 C-4.42790864 1.32725146 -3.52045808 0.44005726 0 0 Z " fill="#EBF7F7" transform="translate(290.5,207.6875)"/>
<path d="M0 0 C2.12636813 0.28151916 4.25108528 0.57553263 6.375 0.875 C7.55835938 1.03742188 8.74171875 1.19984375 9.9609375 1.3671875 C13 2 13 2 15 4 C11.55892734 6.29404844 10.03160191 6.26293056 6 6 C5.67 5.67 5.34 5.34 5 5 C4.01 6.485 4.01 6.485 3 8 C0 3.375 0 3.375 0 0 Z " fill="#1B3B3A" transform="translate(208,329)"/>
<path d="M0 0 C3.375 -0.1875 3.375 -0.1875 7 0 C9 3 9 3 8.625 5.6875 C8.41875 6.450625 8.2125 7.21375 8 8 C6.02 8 4.04 8 2 8 C1.34 5.36 0.68 2.72 0 0 Z " fill="#F5F9F9" transform="translate(307,249)"/>
<path d="M0 0 C3.47775179 1.51553404 5.9557984 3.5773456 8.75 6.125 C9.94882812 7.21167969 9.94882812 7.21167969 11.171875 8.3203125 C11.77515625 8.87460937 12.3784375 9.42890625 13 10 C10 11 10 11 7.5 10.25 C5.12976686 9.06488343 3.71610694 7.98707119 2 6 C1.34 6.66 0.68 7.32 0 8 C0 5.36 0 2.72 0 0 Z " fill="#162F2F" transform="translate(387,316)"/>
<path d="M0 0 C0.66 0 1.32 0 2 0 C2.90383489 5.72428764 0.43328182 9.28946895 -2.39453125 14.0234375 C-3.18923828 15.00183594 -3.18923828 15.00183594 -4 16 C-4.99 16 -5.98 16 -7 16 C-5.82024267 13.44385911 -4.53783987 11.36113159 -2.875 9.0625 C-0.92898671 5.88401162 -0.69102273 4.60473477 -1 1 C-0.67 0.67 -0.34 0.34 0 0 Z M-20 27 C-19.34 27.33 -18.68 27.66 -18 28 C-19.32 28.99 -20.64 29.98 -22 31 C-21.34 29.68 -20.68 28.36 -20 27 Z " fill="#D99356" transform="translate(336,211)"/>
<path d="M0 0 C3 3 3 3 3.34057617 5.17651367 C3.32486572 5.99869385 3.30915527 6.82087402 3.29296875 7.66796875 C3.28330078 8.56064453 3.27363281 9.45332031 3.26367188 10.37304688 C3.23853516 11.30181641 3.21339844 12.23058594 3.1875 13.1875 C3.16719727 14.59805664 3.16719727 14.59805664 3.14648438 16.03710938 C3.11113096 18.35865038 3.06178674 20.67903653 3 23 C2.01 23 1.02 23 0 23 C0 15.41 0 7.82 0 0 Z " fill="#1A2324" transform="translate(156,227)"/>
<path d="M0 0 C0.33 0 0.66 0 1 0 C1 6.93 1 13.86 1 21 C0.34 21 -0.32 21 -1 21 C-1.1953125 18.94921875 -1.390625 16.8984375 -1.5859375 14.84765625 C-1.79089844 13.93306641 -1.79089844 13.93306641 -2 13 C-2.66 12.67 -3.32 12.34 -4 12 C-3.71125 11.319375 -3.4225 10.63875 -3.125 9.9375 C-1.87402645 6.67106907 -0.92552045 3.37153877 0 0 Z " fill="#134140" transform="translate(125,205)"/>
<path d="M0 0 C-4.03872437 9.59453303 -4.03872437 9.59453303 -7 13 C-7.02689216 11.52093108 -7.04634621 10.04172517 -7.0625 8.5625 C-7.07410156 7.73878906 -7.08570312 6.91507812 -7.09765625 6.06640625 C-7 4 -7 4 -6 3 C-6.66 2.67 -7.32 2.34 -8 2 C-8 1.34 -8 0.68 -8 0 C-4.90645403 -0.99435406 -3.09720845 -0.87840996 0 0 Z " fill="#1A2E2E" transform="translate(132,306)"/>
<path d="M0 0 C0.226875 0.639375 0.45375 1.27875 0.6875 1.9375 C1.85250896 4.27193661 1.85250896 4.27193661 4.625 4.75 C5.40875 4.8325 6.1925 4.915 7 5 C7.33 4.34 7.66 3.68 8 3 C8.66 3.33 9.32 3.66 10 4 C9.67 5.32 9.34 6.64 9 8 C7.741875 7.87625 6.48375 7.7525 5.1875 7.625 C4.12595703 7.52058594 4.12595703 7.52058594 3.04296875 7.4140625 C1 7 1 7 -2 5 C-2 3.68 -2 2.36 -2 1 C-1.34 0.67 -0.68 0.34 0 0 Z " fill="#06B0A9" transform="translate(211,231)"/>
<path d="M0 0 C0.66 0 1.32 0 2 0 C3.38938077 1.96147874 4.7260411 3.96166576 6 6 C5.01 6 4.02 6 3 6 C2.34 7.32 1.68 8.64 1 10 C0.34 9.67 -0.32 9.34 -1 9 C-0.67 8.34 -0.34 7.68 0 7 C-0.99 7 -1.98 7 -3 7 C-1.125 2.25 -1.125 2.25 0 0 Z " fill="#138089" transform="translate(605,115)"/>
<path d="M0 0 C1.2065625 0.0309375 1.2065625 0.0309375 2.4375 0.0625 C3.0975 1.7125 3.7575 3.3625 4.4375 5.0625 C3.7775 5.7225 3.1175 6.3825 2.4375 7.0625 C0.4375 7 0.4375 7 -1.5625 6.0625 C-2.8125 3.5 -2.8125 3.5 -3.5625 1.0625 C-2.5625 0.0625 -2.5625 0.0625 0 0 Z " fill="#EFF3F3" transform="translate(382.5625,229.9375)"/>
<path d="M0 0 C2.97 0.495 2.97 0.495 6 1 C5.125 5.75 5.125 5.75 4 8 C3.01 8 2.02 8 1 8 C-1 5 -1 5 -0.625 2.3125 C-0.41875 1.549375 -0.2125 0.78625 0 0 Z " fill="#EAF7F8" transform="translate(194,219)"/>
<path d="M0 0 C0.33 1.65 0.66 3.3 1 5 C-2 7 -2 7 -6 7 C-6 5.02 -6 3.04 -6 1 C-4 0 -4 0 0 0 Z " fill="#E6F6F5" transform="translate(406,219)"/>
<path d="M0 0 C0.33 0 0.66 0 1 0 C0.58411954 6.19518473 -0.60251894 11.26689311 -3 17 C-3.99 16.67 -4.98 16.34 -6 16 C-5.33333333 14 -4.66666667 12 -4 10 C-3.67 8.96875 -3.34 7.9375 -3 6.875 C-2.15543801 4.44688427 -1.21604966 2.25837794 0 0 Z " fill="#DCA335" transform="translate(463,208)"/>
<path d="M0 0 C0.33 0.66 0.66 1.32 1 2 C1.99 2.33 2.98 2.66 4 3 C3.67 3.33 3.34 3.66 3 4 C2.76924918 5.34747084 2.58846937 6.70377565 2.4375 8.0625 C2.293125 9.361875 2.14875 10.66125 2 12 C1.38125 11.34 0.7625 10.68 0.125 10 C-1.75637427 7.7715451 -1.75637427 7.7715451 -4 8 C-3.40072174 4.64404172 -2.15377564 2.62198774 0 0 Z " fill="#03A69E" transform="translate(123,306)"/>
<path d="M0 0 C5 0 5 0 6.8125 1.5 C7.204375 1.995 7.59625 2.49 8 3 C6.35 3 4.7 3 3 3 C3 5.31 3 7.62 3 10 C2.01 10 1.02 10 0 10 C0 6.7 0 3.4 0 0 Z " fill="#CBE6E6" transform="translate(641,97)"/>
<path d="M0 0 C0.99 0 1.98 0 3 0 C3.61669998 6.90703976 2.11242982 10.47759424 -2 16 C-2.66 15.34 -3.32 14.68 -4 14 C-3.01 12.6696875 -3.01 12.6696875 -2 11.3125 C0.02829127 7.95314258 0.40771051 6.77132226 0 3 C0 2.01 0 1.02 0 0 Z " fill="#3383CC" transform="translate(261,189)"/>
<path d="M0 0 C1.98 0.495 1.98 0.495 4 1 C4.38218767 2.65614657 4.71395102 4.32457024 5 6 C4 7 4 7 1.4375 7.0625 C0.2309375 7.0315625 0.2309375 7.0315625 -1 7 C-0.67 4.69 -0.34 2.38 0 0 Z " fill="#F4FBFB" transform="translate(156,251)"/>
<path d="M0 0 C5.78461538 4.18461538 5.78461538 4.18461538 6.875 8.3125 C6.936875 9.6428125 6.936875 9.6428125 7 11 C5.87105124 10.06725891 4.74699124 9.12859878 3.625 8.1875 C2.99851562 7.66542969 2.37203125 7.14335937 1.7265625 6.60546875 C0 5 0 5 -2 2 C-1.34 1.34 -0.68 0.68 0 0 Z " fill="#1C2728" transform="translate(372,221)"/>
<path d="M0 0 C0.33 0 0.66 0 1 0 C1 5.61 1 11.22 1 17 C0.67 17 0.34 17 0 17 C-0.33 13.7 -0.66 10.4 -1 7 C-2.65 8.32 -4.3 9.64 -6 11 C-4.55007731 6.89188572 -2.54592427 3.53144334 0 0 Z " fill="#192824" transform="translate(263,197)"/>
<path d="M0 0 C0.33 0 0.66 0 1 0 C1.04898438 0.63808594 1.09796875 1.27617187 1.1484375 1.93359375 C1.22320313 2.75988281 1.29796875 3.58617187 1.375 4.4375 C1.44460938 5.26121094 1.51421875 6.08492187 1.5859375 6.93359375 C1.72257813 7.61550781 1.85921875 8.29742187 2 9 C2.66 9.33 3.32 9.66 4 10 C4.75 11.8125 4.75 11.8125 5 14 C4.0625 16.25 4.0625 16.25 3 18 C2.34 18 1.68 18 1 18 C1.04125 17.0925 1.0825 16.185 1.125 15.25 C1.25344128 12.11268959 1.25344128 12.11268959 -0.0625 10.125 C-1.57953207 6.68639398 -0.60953089 3.65718534 0 0 Z " fill="#BEBEB4" transform="translate(702,227)"/>
<path d="M0 0 C0.33 0 0.66 0 1 0 C1.6875 3.3125 1.6875 3.3125 2 7 C0.6875 8.9375 0.6875 8.9375 -1 10 C-1.66 10 -2.32 10 -3 10 C-3 7.36 -3 4.72 -3 2 C-2.34 2 -1.68 2 -1 2 C-0.67 1.34 -0.34 0.68 0 0 Z " fill="#122727" transform="translate(450,190)"/>
<path d="M0 0 C0.33 2.97 0.66 5.94 1 9 C-0.65 8.67 -2.3 8.34 -4 8 C-3.67 6.68 -3.34 5.36 -3 4 C-3.99 3.34 -4.98 2.68 -6 2 C-2.25 0 -2.25 0 0 0 Z " fill="#9FB9B7" transform="translate(402,182)"/>
<path d="M0 0 C1.65 0.33 3.3 0.66 5 1 C4.67 2.98 4.34 4.96 4 7 C3.01 7.33 2.02 7.66 1 8 C1 6.35 1 4.7 1 3 C0.34 3 -0.32 3 -1 3 C-0.67 2.01 -0.34 1.02 0 0 Z " fill="#163131" transform="translate(220,232)"/>
<path d="M0 0 C0.66 0 1.32 0 2 0 C2 4.95 2 9.9 2 15 C1.01 14.34 0.02 13.68 -1 13 C-0.67 8.71 -0.34 4.42 0 0 Z " fill="#05A29B" transform="translate(378,213)"/>
<path d="M0 0 C-1.15173355 2.46800047 -2.04783565 4.04783565 -4 6 C-4.66 6 -5.32 6 -6 6 C-6 5.01 -6 4.02 -6 3 C-6.66 3 -7.32 3 -8 3 C-8 2.34 -8 1.68 -8 1 C-5.07175348 0.02391783 -3.04386724 -0.08226668 0 0 Z " fill="#D9EEED" transform="translate(614,101)"/>
<path d="M0 0 C0.33 0.66 0.66 1.32 1 2 C1.66 2 2.32 2 3 2 C2.67 3.65 2.34 5.3 2 7 C1.01 7.33 0.02 7.66 -1 8 C-1.99 6.35 -2.98 4.7 -4 3 C-3.01 2.67 -2.02 2.34 -1 2 C-0.67 1.34 -0.34 0.68 0 0 Z " fill="#0A7882" transform="translate(605,102)"/>
<path d="M0 0 C1.32 0 2.64 0 4 0 C4.33 2.97 4.66 5.94 5 9 C4.01 8.67 3.02 8.34 2 8 C2 6.02 2 4.04 2 2 C1.01 1.67 0.02 1.34 -1 1 C-0.67 0.67 -0.34 0.34 0 0 Z " fill="#EBF7F6" transform="translate(655,96)"/>
<path d="M0 0 C1.2065625 0.0309375 1.2065625 0.0309375 2.4375 0.0625 C2.1075 1.0525 1.7775 2.0425 1.4375 3.0625 C0.7775 3.0625 0.1175 3.0625 -0.5625 3.0625 C-0.8925 4.3825 -1.2225 5.7025 -1.5625 7.0625 C-2.2225 7.0625 -2.8825 7.0625 -3.5625 7.0625 C-3.60504356 5.06295254 -3.60330783 3.06208364 -3.5625 1.0625 C-2.5625 0.0625 -2.5625 0.0625 0 0 Z " fill="#172829" transform="translate(209.5625,228.9375)"/>
<path d="M0 0 C0.99 0 1.98 0 3 0 C3 2.97 3 5.94 3 9 C2.01 8.67 1.02 8.34 0 8 C0 5.36 0 2.72 0 0 Z " fill="#D4DADA" transform="translate(704,228)"/>
<path d="M0 0 C2.64 0 5.28 0 8 0 C7.67 1.98 7.34 3.96 7 6 C6.67 4.68 6.34 3.36 6 2 C4.02 2.33 2.04 2.66 0 3 C0 2.01 0 1.02 0 0 Z " fill="#E8F4F4" transform="translate(620,100)"/>
<path d="M0 0 C4.875 4.75 4.875 4.75 6 7 C4.68 7 3.36 7 2 7 C2 6.34 2 5.68 2 5 C0.68 4.34 -0.64 3.68 -2 3 C-1.34 2.67 -0.68 2.34 0 2 C0 1.34 0 0.68 0 0 Z " fill="#1B2A2B" transform="translate(332,321)"/>
<path d="M0 0 C0.33 0 0.66 0 1 0 C1.07347656 0.95712891 1.07347656 0.95712891 1.1484375 1.93359375 C1.22320312 2.75988281 1.29796875 3.58617187 1.375 4.4375 C1.44460938 5.26121094 1.51421875 6.08492187 1.5859375 6.93359375 C1.72257812 7.61550781 1.85921875 8.29742187 2 9 C2.66 9.33 3.32 9.66 4 10 C2.35 11.32 0.7 12.64 -1 14 C-1.66 13.67 -2.32 13.34 -3 13 C-2.34 12.34 -1.68 11.68 -1 11 C-0.53709779 8.33757179 -0.53709779 8.33757179 -0.375 5.375 C-0.30023438 4.37210938 -0.22546875 3.36921875 -0.1484375 2.3359375 C-0.09945313 1.56507813 -0.05046875 0.79421875 0 0 Z " fill="#079891" transform="translate(392,217)"/>
<path d="M0 0 C5.28 0 10.56 0 16 0 C15.67 0.99 15.34 1.98 15 3 C7.575 2.01 7.575 2.01 0 1 C0 0.67 0 0.34 0 0 Z " fill="#0E2525" transform="translate(447,207)"/>
<path d="M0 0 C0.99 0.33 1.98 0.66 3 1 C3 2.98 3 4.96 3 7 C1.68 7.33 0.36 7.66 -1 8 C-0.67 5.36 -0.34 2.72 0 0 Z " fill="#E0EFEF" transform="translate(590,118)"/>
<path d="M0 0 C-0.33 1.32 -0.66 2.64 -1 4 C-3.31 3.34 -5.62 2.68 -8 2 C-8 3.65 -8 5.3 -8 7 C-8.33 7 -8.66 7 -9 7 C-9 5.02 -9 3.04 -9 1 C-5.92677456 0.08941469 -3.19902639 -0.08886184 0 0 Z " fill="#05737E" transform="translate(588,107)"/>
<path d="M0 0 C0.33 0 0.66 0 1 0 C1.29162929 4.95769796 1.12940055 8.02806853 -2 12 C-2.66 12 -3.32 12 -4 12 C-3.71125 11.319375 -3.4225 10.63875 -3.125 9.9375 C-1.87402645 6.67106907 -0.92552045 3.37153877 0 0 Z " fill="#E05A7C" transform="translate(125,205)"/>
<path d="M0 0 C1.66611905 -0.042721 3.33382885 -0.04063832 5 0 C6 1 6 1 6.0625 4.0625 C6.041875 5.031875 6.02125 6.00125 6 7 C5.01 7 4.02 7 3 7 C2.814375 5.824375 2.814375 5.824375 2.625 4.625 C2.20882007 1.85942178 2.20882007 1.85942178 0 0 Z " fill="#D8ECEC" transform="translate(585,104)"/>
<path d="M0 0 C0.2475 0.61875 0.495 1.2375 0.75 1.875 C2.20628639 4.35068687 3.37812506 4.95125002 6 6 C3.69 6 1.38 6 -1 6 C-1.33 4.35 -1.66 2.7 -2 1 C-1.34 0.67 -0.68 0.34 0 0 Z " fill="#1BB6AE" transform="translate(211,231)"/>
<path d="M0 0 C4.455 0.99 4.455 0.99 9 2 C9 2.33 9 2.66 9 3 C7.02 3 5.04 3 3 3 C2.67 3.99 2.34 4.98 2 6 C0 3 0 3 0 0 Z " fill="#102424" transform="translate(208,329)"/>
<path d="M0 0 C2 2 2 2 2.1953125 4.1640625 C2.16050781 5.38222656 2.16050781 5.38222656 2.125 6.625 C2.10695313 7.44226563 2.08890625 8.25953125 2.0703125 9.1015625 C2.04710937 9.72804688 2.02390625 10.35453125 2 11 C0.48046875 9.76171875 0.48046875 9.76171875 -1 8 C-1.10118893 5.21464152 -0.49854208 2.76464243 0 0 Z " fill="#162728" transform="translate(337,312)"/>
<path d="M0 0 C1.65 0 3.3 0 5 0 C5.33 1.32 5.66 2.64 6 4 C3.03 3.505 3.03 3.505 0 3 C0 2.01 0 1.02 0 0 Z " fill="#BAC5C4" transform="translate(205,249)"/>
<path d="M0 0 C2.64 0.66 5.28 1.32 8 2 C7.67 2.66 7.34 3.32 7 4 C4.69 4 2.38 4 0 4 C0 2.68 0 1.36 0 0 Z " fill="#01BBB2" transform="translate(212,333)"/>
<path d="M0 0 C3.465 1.485 3.465 1.485 7 3 C3.5647952 5.29013653 2.014669 5.17842973 -2 5 C-1.34 4.01 -0.68 3.02 0 2 C0 1.34 0 0.68 0 0 Z " fill="#398F8D" transform="translate(390,323)"/>
<path d="M0 0 C0.6875 1.8125 0.6875 1.8125 1 4 C-0.3125 5.75 -0.3125 5.75 -2 7 C-2.66 7 -3.32 7 -4 7 C-4 5.02 -4 3.04 -4 1 C-3.67 1.99 -3.34 2.98 -3 4 C-2.34 4 -1.68 4 -1 4 C-0.67 2.68 -0.34 1.36 0 0 Z " fill="#C89734" transform="translate(451,242)"/>
<path d="M0 0 C0.33 0 0.66 0 1 0 C0.67 2.97 0.34 5.94 0 9 C-0.66 8.67 -1.32 8.34 -2 8 C-2.125 5.125 -2.125 5.125 -2 2 C-1.34 1.34 -0.68 0.68 0 0 Z " fill="#CA9939" transform="translate(463,208)"/>
<path d="M0 0 C0.99 0 1.98 0 3 0 C3 1.98 3 3.96 3 6 C2.01 6.495 2.01 6.495 1 7 C0.67 4.69 0.34 2.38 0 0 Z " fill="#E2E7E6" transform="translate(387,188)"/>
<path d="M0 0 C0.66 0 1.32 0 2 0 C2.125 2.875 2.125 2.875 2 6 C1.34 6.66 0.68 7.32 0 8 C-0.79953138 4.71303767 -1.09658936 3.28976808 0 0 Z " fill="#C98255" transform="translate(336,211)"/>
</svg>
